<svg width="190" height="32" viewBox="0 0 190 32" fill="none" xmlns="http://www.w3.org/2000/svg">
<path d="M16.0003 2.66699L20.1203 11.0137L29.3337 12.3603L22.667 18.8537L24.2403 28.027L16.0003 23.6937L7.76033 28.027L9.33366 18.8537L2.66699 12.3603L11.8803 11.0137L16.0003 2.66699Z" fill="#DE1B41" stroke="#DE1B41" stroke-width="2" stroke-linecap="round" stroke-linejoin="round"/>
<path d="M174 2.66699L178.12 11.0137L187.334 12.3603L180.667 18.8537L182.24 28.027L174 23.6937L165.76 28.027L167.334 18.8537L160.667 12.3603L169.88 11.0137L174 2.66699Z" fill="#DE1B41" stroke="#DE1B41" stroke-width="2" stroke-linecap="round" stroke-linejoin="round"/>
<path d="M56.0003 2.66699L60.1203 11.0137L69.3337 12.3603L62.667 18.8537L64.2403 28.027L56.0003 23.6937L47.7603 28.027L49.3337 18.8537L42.667 12.3603L51.8803 11.0137L56.0003 2.66699Z" fill="#DE1B41" stroke="#DE1B41" stroke-width="2" stroke-linecap="round" stroke-linejoin="round"/>
<path d="M96.0003 2.66699L100.12 11.0137L109.334 12.3603L102.667 18.8537L104.24 28.027L96.0003 23.6937L87.7603 28.027L89.3337 18.8537L82.667 12.3603L91.8803 11.0137L96.0003 2.66699Z" fill="#DE1B41" stroke="#DE1B41" stroke-width="2" stroke-linecap="round" stroke-linejoin="round"/>
<path d="M136 2.66699L140.12 11.0137L149.334 12.3603L142.667 18.8537L144.24 28.027L136 23.6937L127.76 28.027L129.334 18.8537L122.667 12.3603L131.88 11.0137L136 2.66699Z" fill="#DE1B41" stroke="#DE1B41" stroke-width="2" stroke-linecap="round" stroke-linejoin="round"/>
</svg>
