<svg width="150" height="150" viewBox="0 0 150 150" fill="none" xmlns="http://www.w3.org/2000/svg">
<rect width="150" height="150" rx="20" fill="#FFDDE4"/>
<path d="M100.723 49.3235C102.783 46.3376 107.214 38.8204 103.883 33.5392C102.277 30.9938 99.5187 30.1267 98.3422 29.7579C94.8172 28.647 88.9938 28.6079 81.2797 34.711C78.6344 36.8032 73.7922 42.1829 72.9938 48.436H68.1875C67.7891 48.436 67.4047 48.5892 67.1141 48.861L53.0516 62.1251C52.7391 62.4235 52.5625 62.8345 52.5625 63.2642V120.313C52.5625 121.177 53.2609 121.875 54.125 121.875H97.875C98.7391 121.875 99.4375 121.177 99.4375 120.313V63.2642C99.4375 62.8345 99.2609 62.4235 98.9484 62.1267L93.2125 56.7157C95.9453 54.8563 98.5656 52.4532 100.723 49.3235ZM96.3125 63.9392V118.75H55.6875V63.9392L68.8078 51.5626H83.1906L88.025 56.122C85.8281 57.2173 83.6672 57.9767 81.7437 58.4829C80.7891 56.2532 78.575 54.6876 76 54.6876C72.5531 54.6876 69.75 57.4907 69.75 60.9376C69.75 64.3845 72.5531 67.1876 76 67.1876C79.2156 67.1876 81.8391 64.7407 82.1813 61.6157C84.6875 60.9907 87.5703 59.9704 90.45 58.4095L96.3125 63.9392ZM78.8156 62.2688C78.3141 63.3251 77.2453 64.0626 76 64.0626C74.2766 64.0626 72.875 62.661 72.875 60.9376C72.875 59.2142 74.2766 57.8126 76 57.8126C77.0562 57.8126 77.9875 58.3423 78.5547 59.1485C77.5078 59.3048 76.625 59.3751 76 59.3751V62.5001C76.7188 62.5001 77.6906 62.4267 78.8156 62.2688ZM90.875 54.5126L84.8859 48.8626C84.5953 48.5907 84.2109 48.4376 83.8125 48.4376H76.1547C77.0062 43.1532 81.4219 38.586 83.2203 37.161C88.5484 32.9454 93.3203 31.4563 97.4063 32.7407C98.4 33.0517 100.245 33.6329 101.241 35.2079C103.152 38.236 100.897 43.5688 98.15 47.5485C96.0906 50.5345 93.5328 52.8017 90.875 54.5126Z" fill="#DE1B41"/>
<path d="M75.9997 73.4375C68.245 73.4375 61.9372 80.0969 61.9372 88.2812C61.9372 91.6672 63.0278 94.7812 64.8418 97.2812L60.4544 110.444C60.2669 111.005 60.4137 111.625 60.8309 112.042C61.1293 112.339 61.5293 112.5 61.9372 112.5C62.1012 112.5 62.27 112.473 62.4309 112.419L66.5028 111.063L69.0497 112.334C69.4559 112.538 69.9278 112.555 70.3465 112.38C70.7653 112.205 71.0887 111.859 71.2294 111.431L74.0512 102.966C74.6903 103.059 75.3372 103.125 75.9997 103.125C76.6622 103.125 77.309 103.059 77.9465 102.966L80.7684 111.431C80.9106 111.859 81.234 112.206 81.6512 112.38C82.07 112.552 82.5403 112.536 82.9481 112.334L85.495 111.063L89.5668 112.419C89.7293 112.473 89.8981 112.5 90.0622 112.5C90.47 112.5 90.87 112.339 91.1668 112.042C91.5856 111.623 91.7309 111.005 91.5434 110.444L87.1559 97.2812C88.9715 94.7812 90.0622 91.6672 90.0622 88.2812C90.0622 80.0969 83.7543 73.4375 75.9997 73.4375ZM71.0294 102.156L68.8372 108.734L67.3231 107.978C67.1044 107.867 66.8653 107.812 66.6247 107.812C66.459 107.812 66.2918 107.839 66.1309 107.894L64.4075 108.467L67.2622 99.9016C67.3012 99.9344 67.345 99.9563 67.384 99.9891C67.8856 100.4 68.4122 100.777 68.9637 101.116C69.0122 101.145 69.059 101.178 69.1075 101.208C69.7028 101.562 70.3262 101.867 70.9715 102.128C70.9918 102.136 71.009 102.148 71.0294 102.156ZM73.4106 99.6547C73.4075 99.6547 73.4059 99.6516 73.4028 99.6516C72.334 99.3719 71.3278 98.9234 70.3997 98.3297C70.359 98.3031 70.3169 98.2766 70.2762 98.2484C69.3747 97.6531 68.5528 96.9172 67.8356 96.0531C66.1168 93.9812 65.0622 91.2641 65.0622 88.2812C65.0622 81.8187 69.97 76.5625 75.9997 76.5625C82.0294 76.5625 86.9372 81.8187 86.9372 88.2812C86.9372 91.2641 85.8825 93.9812 84.1637 96.0516C83.4465 96.9172 82.6247 97.6531 81.7231 98.2484C81.6825 98.275 81.6418 98.3016 81.5997 98.3281C80.6731 98.9219 79.6653 99.3703 78.5965 99.65C78.5934 99.65 78.5919 99.6531 78.5887 99.6531C77.7575 99.8719 76.8934 100 75.9997 100C75.1059 100 74.2419 99.8719 73.4106 99.6547ZM85.8684 107.894C85.4731 107.759 85.0481 107.792 84.6747 107.978L83.1606 108.734L80.9684 102.156C80.9887 102.148 81.0075 102.136 81.0262 102.128C81.6715 101.866 82.295 101.562 82.8903 101.206C82.9387 101.177 82.9856 101.144 83.034 101.114C83.5856 100.777 84.1122 100.4 84.6137 99.9875C84.6528 99.9563 84.6965 99.9328 84.7356 99.9L87.5903 108.466L85.8684 107.894Z" fill="#DE1B41"/>
<path d="M77.5625 95.025C79.3766 94.3781 80.6875 92.6594 80.6875 90.625C80.6875 90.1344 80.4562 89.6703 80.0625 89.375L74.5891 85.2687C74.8391 84.7406 75.3781 84.375 76 84.375C76.8625 84.375 77.5625 85.075 77.5625 85.9375H80.6875C80.6875 83.9031 79.3766 82.1844 77.5625 81.5375V79.6875H74.4375V81.5375C72.6234 82.1844 71.3125 83.9031 71.3125 85.9375C71.3125 86.4281 71.5437 86.8922 71.9375 87.1875L77.4109 91.2938C77.1609 91.8219 76.6219 92.1875 76 92.1875C75.1375 92.1875 74.4375 91.4875 74.4375 90.625H71.3125C71.3125 92.6594 72.6234 94.3781 74.4375 95.025V96.875H77.5625V95.025Z" fill="#DE1B41"/>
<path d="M52.5625 32.8125H49.4375V37.5H52.5625V32.8125Z" fill="#DE1B41"/>
<path d="M61.9375 42.1875H57.25V45.3125H61.9375V42.1875Z" fill="#DE1B41"/>
<path d="M52.5625 50H49.4375V54.6875H52.5625V50Z" fill="#DE1B41"/>
<path d="M44.75 42.1875H40.0625V45.3125H44.75V42.1875Z" fill="#DE1B41"/>
<path d="M57.7075 34.833L54.583 37.9575L56.7927 40.1672L59.9172 37.0427L57.7075 34.833Z" fill="#DE1B41"/>
<path d="M56.7927 47.3328L54.583 49.5425L57.7075 52.667L59.9172 50.4573L56.7927 47.3328Z" fill="#DE1B41"/>
<path d="M45.2075 47.333L42.083 50.4575L44.2927 52.6672L47.4172 49.5427L45.2075 47.333Z" fill="#DE1B41"/>
<path d="M44.2927 34.8328L42.083 37.0425L45.2075 40.167L47.4172 37.9573L44.2927 34.8328Z" fill="#DE1B41"/>
<path d="M44.75 68.75C42.1656 68.75 40.0625 70.8531 40.0625 73.4375C40.0625 76.0219 42.1656 78.125 44.75 78.125C47.3344 78.125 49.4375 76.0219 49.4375 73.4375C49.4375 70.8531 47.3344 68.75 44.75 68.75ZM44.75 75C43.8875 75 43.1875 74.3 43.1875 73.4375C43.1875 72.575 43.8875 71.875 44.75 71.875C45.6125 71.875 46.3125 72.575 46.3125 73.4375C46.3125 74.3 45.6125 75 44.75 75Z" fill="#DE1B41"/>
<path d="M32.25 89.0625H29.125V92.1875H32.25V89.0625Z" fill="#DE1B41"/>
<path d="M35.375 85.9375H32.25V89.0625H35.375V85.9375Z" fill="#DE1B41"/>
<path d="M38.5 89.0625H35.375V92.1875H38.5V89.0625Z" fill="#DE1B41"/>
<path d="M35.375 92.1875H32.25V95.3125H35.375V92.1875Z" fill="#DE1B41"/>
<path d="M41.625 103.125C39.0406 103.125 36.9375 105.228 36.9375 107.812C36.9375 110.397 39.0406 112.5 41.625 112.5C44.2094 112.5 46.3125 110.397 46.3125 107.812C46.3125 105.228 44.2094 103.125 41.625 103.125ZM41.625 109.375C40.7625 109.375 40.0625 108.675 40.0625 107.812C40.0625 106.95 40.7625 106.25 41.625 106.25C42.4875 106.25 43.1875 106.95 43.1875 107.812C43.1875 108.675 42.4875 109.375 41.625 109.375Z" fill="#DE1B41"/>
<path d="M108.812 103.125C106.228 103.125 104.125 105.228 104.125 107.812C104.125 110.397 106.228 112.5 108.812 112.5C111.397 112.5 113.5 110.397 113.5 107.812C113.5 105.228 111.397 103.125 108.812 103.125ZM108.812 109.375C107.95 109.375 107.25 108.675 107.25 107.812C107.25 106.95 107.95 106.25 108.812 106.25C109.675 106.25 110.375 106.95 110.375 107.812C110.375 108.675 109.675 109.375 108.812 109.375Z" fill="#DE1B41"/>
<path d="M116.625 90.625H113.5V93.75H116.625V90.625Z" fill="#DE1B41"/>
<path d="M119.75 87.5H116.625V90.625H119.75V87.5Z" fill="#DE1B41"/>
<path d="M122.875 90.625H119.75V93.75H122.875V90.625Z" fill="#DE1B41"/>
<path d="M119.75 93.75H116.625V96.875H119.75V93.75Z" fill="#DE1B41"/>
<path d="M111.938 73.4375C111.938 70.8531 109.834 68.75 107.25 68.75C104.666 68.75 102.562 70.8531 102.562 73.4375C102.562 76.0219 104.666 78.125 107.25 78.125C109.834 78.125 111.938 76.0219 111.938 73.4375ZM105.688 73.4375C105.688 72.575 106.388 71.875 107.25 71.875C108.112 71.875 108.812 72.575 108.812 73.4375C108.812 74.3 108.112 75 107.25 75C106.388 75 105.688 74.3 105.688 73.4375Z" fill="#DE1B41"/>
<path d="M116.625 53.125H113.5V56.25H116.625V53.125Z" fill="#DE1B41"/>
<path d="M119.75 50H116.625V53.125H119.75V50Z" fill="#DE1B41"/>
<path d="M122.875 53.125H119.75V56.25H122.875V53.125Z" fill="#DE1B41"/>
<path d="M119.75 56.25H116.625V59.375H119.75V56.25Z" fill="#DE1B41"/>
</svg>
