<svg width="99" height="99" viewBox="0 0 99 99" fill="none" xmlns="http://www.w3.org/2000/svg">
<rect width="98.8394" height="98.8394" rx="10" fill="#DE1B41"/>
<g clip-path="url(#clip0_125_2)">
<path d="M14.5414 42.5767L26.1066 40.1638C26.7723 40.014 27.4213 40.4467 27.5544 41.1123C27.5877 41.1955 27.5877 41.2954 27.5877 41.3786V78.5205H69.7385V41.3786C69.7385 40.6797 70.2876 40.1305 70.9699 40.1305C71.103 40.1305 71.2195 40.1472 71.3193 40.1804L82.7848 42.5767L85.647 29.3141L62.1836 20.012C61.7676 23.0406 60.3531 25.753 58.2897 27.7998C55.8102 30.2626 52.3989 31.7769 48.6547 31.7769C44.9106 31.7769 41.5159 30.2626 39.0364 27.7998C36.9564 25.753 35.5419 23.0406 35.1425 20.012L11.6792 29.3141L14.5414 42.5767ZM36.5403 17.0333C40.6007 17.7488 44.6443 18.0983 48.6547 18.0816C52.6984 18.0816 56.7421 17.7322 60.8024 17.0333C61.0188 16.9834 61.2684 17 61.518 17.0832L87.544 27.3838C88.0931 27.6167 88.4259 28.1992 88.2928 28.7982L84.9314 44.3073C84.7983 44.973 84.1493 45.389 83.4837 45.2558L72.2179 42.8929V79.7519C72.2179 80.4342 71.6522 81 70.9699 81H26.3563C25.674 81 25.1082 80.4342 25.1082 79.7519V42.8929L13.8591 45.2558C13.1935 45.389 12.5279 44.973 12.3947 44.3073L9.03332 28.8482C8.88355 28.2491 9.19972 27.6167 9.78215 27.3838L35.7582 17.1165C35.908 17.0333 36.091 17 36.2741 17C36.3573 17 36.4571 17.0166 36.5403 17.0333ZM59.7208 19.7124C56.0432 20.2616 52.3656 20.5611 48.6547 20.5611C44.9605 20.5611 41.2829 20.2782 37.6053 19.7124C37.9382 22.1752 39.0864 24.3718 40.7837 26.0525C42.7972 28.066 45.5929 29.2975 48.6547 29.2975C51.7333 29.2975 54.5289 28.066 56.5424 26.0525C58.2398 24.3718 59.388 22.1752 59.7208 19.7124Z" fill="white"/>
</g>
<defs>
<clipPath id="clip0_125_2">
<rect width="79.3261" height="64" fill="white" transform="translate(9 17)"/>
</clipPath>
</defs>
</svg>
