<svg width="113" height="113" viewBox="0 0 113 113" fill="none" xmlns="http://www.w3.org/2000/svg">
<rect x="8" y="8" width="98.8394" height="98.8394" rx="10" fill="#DE1B41"/>
<path d="M60.3759 87.236C58.3758 87.236 56.9294 87.123 56.5 87.0778C55.1892 87.1908 44.2395 88.0496 37.29 84.0042L36.6459 83.62L36.7702 82.8516C36.7702 82.7273 38.6799 70.7154 34.6232 64.7716C30.1032 58.1498 30.3405 44.6124 30.3518 44.0474V25.7753H40.6009L43.0756 41.5953C43.0756 41.6744 43.9005 45.2904 56.5 45.2904C69.0995 45.2904 69.9131 41.6744 69.9244 41.6292L72.4104 25.8092H82.6595V44.07C82.6595 44.6237 82.9081 58.1498 78.3881 64.7716C74.3314 70.7267 76.2298 82.7386 76.2411 82.8516L76.3654 83.62L75.6987 84.0155C71.0205 86.7388 64.5117 87.236 60.3759 87.236ZM39.1206 82.4222C45.765 85.8122 56.2853 84.8404 56.3983 84.8178H56.6243C56.7373 84.8178 67.2576 85.8235 73.902 82.4222C73.45 79.4842 72.546 69.3029 76.501 63.4947C80.6142 57.4605 80.3769 44.2169 80.3769 44.0926V28.0353H74.3314L72.1618 41.9117C72.1618 42.3976 71.3821 47.5617 56.5 47.5617C41.6179 47.5617 40.8721 42.3976 40.8269 41.81L38.6686 28.0353H32.6118V44.07C32.6118 44.2282 32.3858 57.4831 36.4877 63.506C40.454 69.3029 39.55 79.4842 39.1206 82.4222Z" fill="white"/>
</svg>
