<svg width="188" height="188" viewBox="0 0 188 188" fill="none" xmlns="http://www.w3.org/2000/svg">
<circle cx="94" cy="94" r="94" fill="#DE1B41"/>
<g clip-path="url(#clip0_1_760)">
<path d="M78.9825 72.3641C78.9825 71.24 79.8935 70.3273 81.0184 70.3273H96.7531C97.878 70.3273 98.789 71.2392 98.789 72.3641C98.789 73.489 97.878 74.4008 96.7531 74.4008H81.0184C79.8935 74.4008 78.9825 73.489 78.9825 72.3641ZM80.7629 84.351H107.258C108.383 84.351 109.294 83.4392 109.294 82.3143C109.294 81.1894 108.383 80.2776 107.258 80.2776H80.7629C79.638 80.2776 78.727 81.1894 78.727 82.3143C78.727 83.4392 79.638 84.351 80.7629 84.351ZM80.7629 94.3012H107.258C108.383 94.3012 109.294 93.3894 109.294 92.2645C109.294 91.1396 108.383 90.2278 107.258 90.2278H80.7629C79.638 90.2278 78.727 91.1396 78.727 92.2645C78.727 93.3894 79.638 94.3012 80.7629 94.3012ZM133.036 87.2661V131.556C133.036 132.681 132.125 133.592 131 133.592H56.9988C55.8739 133.592 54.9629 132.681 54.9629 131.556V87.2661C54.9629 86.6612 55.2315 86.0873 55.6968 85.7004L68.1066 75.3853V64.0343C68.1066 62.9102 69.0176 61.9976 70.1425 61.9976H84.158L92.6951 54.88C93.4527 54.2498 94.5515 54.2506 95.3057 54.8824L103.809 61.9976H107.652C108.2 61.9976 108.725 62.2188 109.108 62.6106C115.913 69.5771 119.316 73.0718 119.316 73.0718C119.686 73.4522 119.893 73.9616 119.893 74.4922V75.3698L132.302 85.6996C132.768 86.0882 133.036 86.6612 133.036 87.2661ZM59.0347 90.858V125.874L78.3319 102.407L59.0347 90.858ZM61.309 129.52H126.69L106.134 104.522L95.0453 111.159C94.7229 111.351 94.3613 111.448 93.9996 111.448C93.638 111.448 93.2755 111.353 92.9539 111.159L81.8649 104.522L61.309 129.52ZM128.965 125.874V90.858L109.667 102.407L128.965 125.874ZM109.689 72.2253H112.802C111.927 71.3282 110.884 70.2596 109.689 69.0343V72.2253ZM119.894 80.6694V91.5404L127.491 86.9935L119.894 80.6694ZM90.518 61.9976H97.4633L93.9972 59.0971L90.518 61.9976ZM72.1792 66.071V93.9788L93.9996 107.038L115.821 93.978V76.298H107.653C106.528 76.298 105.617 75.3861 105.617 74.2612V66.071H72.1792ZM68.1066 80.6808L60.5106 86.9943L68.1066 91.5404V80.6808Z" fill="white"/>
</g>
<defs>
<clipPath id="clip0_1_760">
<rect width="80" height="80" fill="white" transform="translate(54 54)"/>
</clipPath>
</defs>
</svg>
