<svg width="122" height="122" viewBox="0 0 122 122" fill="none" xmlns="http://www.w3.org/2000/svg">
<circle cx="61" cy="61" r="61" fill="#DE1B41"/>
<path d="M57.6402 51.4384V55.512H54.6582V60.4909H57.6402V75.2915H63.7699V60.4909H67.882C67.882 60.4909 68.2695 58.1035 68.4559 55.4913H63.7935V52.0893C63.7935 51.5775 64.4621 50.8941 65.1248 50.8941H68.4618V45.7081H63.9207C57.4893 45.7081 57.6402 50.6929 57.6402 51.4384Z" fill="white"/>
<path d="M61.5013 84.1665C67.7781 84.1665 73.7978 81.6731 78.2362 77.2347C82.6745 72.7963 85.168 66.7766 85.168 60.4998C85.168 54.223 82.6745 48.2033 78.2362 43.765C73.7978 39.3266 67.7781 36.8332 61.5013 36.8332C55.2245 36.8332 49.2048 39.3266 44.7664 43.765C40.3281 48.2033 37.8346 54.223 37.8346 60.4998C37.8346 66.7766 40.3281 72.7963 44.7664 77.2347C49.2048 81.6731 55.2245 84.1665 61.5013 84.1665ZM61.5013 90.0832C45.1624 90.0832 31.918 76.8387 31.918 60.4998C31.918 44.161 45.1624 30.9165 61.5013 30.9165C77.8402 30.9165 91.0846 44.161 91.0846 60.4998C91.0846 76.8387 77.8402 90.0832 61.5013 90.0832Z" fill="white"/>
</svg>
