<svg width="122" height="122" viewBox="0 0 122 122" fill="none" xmlns="http://www.w3.org/2000/svg">
<circle cx="60.8154" cy="61.1132" r="60.8154" fill="#DE1B41"/>
<path d="M61.4814 48.9085C58.0665 48.9085 54.7914 50.2651 52.3767 52.6798C49.962 55.0945 48.6055 58.3695 48.6055 61.7844C48.6055 65.1993 49.962 68.4744 52.3767 70.8891C54.7914 73.3038 58.0665 74.6604 61.4814 74.6604C64.8963 74.6604 68.1713 73.3038 70.5861 70.8891C73.0008 68.4744 74.3573 65.1993 74.3573 61.7844C74.3573 58.3695 73.0008 55.0945 70.5861 52.6798C68.1713 50.2651 64.8963 48.9085 61.4814 48.9085ZM61.4814 70.1465C59.2629 70.1465 57.1352 69.2652 55.5665 67.6965C53.9978 66.1278 53.1165 64.0002 53.1165 61.7817C53.1165 59.5631 53.9978 57.4355 55.5665 55.8668C57.1352 54.2981 59.2629 53.4168 61.4814 53.4168C63.6999 53.4168 65.8276 54.2981 67.3963 55.8668C68.965 57.4355 69.8463 59.5631 69.8463 61.7817C69.8463 64.0002 68.965 66.1278 67.3963 67.6965C65.8276 69.2652 63.6999 70.1465 61.4814 70.1465Z" fill="white"/>
<path d="M74.867 51.4367C76.5249 51.4367 77.8688 50.0928 77.8688 48.4349C77.8688 46.7771 76.5249 45.4332 74.867 45.4332C73.2092 45.4332 71.8652 46.7771 71.8652 48.4349C71.8652 50.0928 73.2092 51.4367 74.867 51.4367Z" fill="white"/>
<path d="M85.2443 45.3831C84.5997 43.7184 83.6146 42.2067 82.3521 40.9446C81.0895 39.6826 79.5774 38.6981 77.9125 38.0541C75.9642 37.3227 73.906 36.9273 71.8254 36.8846C69.1438 36.7676 68.2945 36.7342 61.4946 36.7342C54.6946 36.7342 53.823 36.7342 51.1638 36.8846C49.0848 36.9251 47.028 37.3206 45.0822 38.0541C43.4169 38.6973 41.9044 39.6816 40.6417 40.9437C39.3791 42.2059 38.3943 43.718 37.7504 45.3831C37.0189 47.3312 36.6244 49.3897 36.5837 51.4702C36.4639 54.149 36.4277 54.9983 36.4277 61.801C36.4277 68.601 36.4277 69.467 36.5837 72.1319C36.6254 74.2147 37.0181 76.2697 37.7504 78.2217C38.3961 79.8863 39.3819 81.3978 40.6448 82.6597C41.9077 83.9217 43.42 84.9063 45.085 85.5508C47.0271 86.3115 49.0847 86.7353 51.1693 86.8038C53.8509 86.9208 54.7002 86.957 61.5002 86.957C68.3001 86.957 69.1717 86.957 71.831 86.8038C73.9113 86.7615 75.9695 86.367 77.9181 85.6371C79.5826 84.9916 81.0942 84.0062 82.3566 82.7438C83.619 81.4814 84.6044 79.9698 85.2499 78.3053C85.9822 76.3561 86.3749 74.301 86.4166 72.2182C86.5364 69.5394 86.5726 68.6901 86.5726 61.8874C86.5726 55.0846 86.5726 54.2214 86.4166 51.5565C86.3842 49.4466 85.9876 47.3581 85.2443 45.3831ZM81.8527 71.9258C81.8347 73.5306 81.5418 75.1204 80.9867 76.6262C80.5685 77.709 79.9283 78.6923 79.1073 79.5129C78.2863 80.3334 77.3026 80.9731 76.2195 81.3906C74.7304 81.9432 73.1574 82.2361 71.5692 82.2566C68.9239 82.3791 68.1776 82.4098 61.3943 82.4098C54.6055 82.4098 53.9122 82.4098 51.2167 82.2566C49.6293 82.2372 48.0571 81.9442 46.5692 81.3906C45.4823 80.9757 44.4947 80.3372 43.6701 79.5165C42.8456 78.6958 42.2025 77.7111 41.7825 76.6262C41.2352 75.1366 40.9424 73.5655 40.9165 71.9787C40.7967 69.3333 40.7689 68.5871 40.7689 61.8038C40.7689 55.0178 40.7689 54.3244 40.9165 51.6262C40.9345 50.0223 41.2274 48.4334 41.7825 46.9286C42.6318 44.7315 44.3722 43.0023 46.5692 42.1614C48.0578 41.6104 49.6295 41.3175 51.2167 41.2953C53.8648 41.1756 54.6083 41.1422 61.3943 41.1422C68.1804 41.1422 68.8765 41.1422 71.5692 41.2953C73.1576 41.3145 74.7307 41.6074 76.2195 42.1614C77.3025 42.5798 78.286 43.2201 79.107 44.041C79.928 44.862 80.5682 45.8456 80.9867 46.9286C81.534 48.4182 81.8268 49.9893 81.8527 51.576C81.9724 54.2242 82.0031 54.9677 82.0031 61.7537C82.0031 68.537 82.0031 69.2665 81.8833 71.9286H81.8527V71.9258Z" fill="white"/>
</svg>
