<svg width="80" height="80" viewBox="0 0 80 80" fill="none" xmlns="http://www.w3.org/2000/svg">
<g clip-path="url(#clip0_1_747)">
<path d="M79.984 61.4371C79.8165 59.2659 78.4093 57.2555 75.914 55.6166C71.5727 52.7651 67.0543 50.0583 62.6859 47.4449L62.1514 47.1232C57.9538 44.6078 54.139 45.2656 50.4918 49.1368C50.3702 49.2627 50.2396 49.3794 50.1009 49.4858C50.0622 49.5123 50.025 49.5407 49.9892 49.571C48.7894 50.4476 46.8094 51.0282 46.1186 50.7563C38.3981 47.7102 32.7501 41.9959 29.3295 33.7743C29.0519 33.1053 29.4044 31.2911 29.8081 30.8697C37.1217 25.7039 34.4685 19.4926 31.8359 15.2692C31.2371 14.3107 30.6425 13.3559 30.0522 12.4048C28.3993 9.73024 26.681 6.96558 24.9355 4.27489C23.2523 1.6791 21.3122 0.254146 19.1695 0.0305922C17.0858 -0.18492 14.9974 0.757543 12.9456 2.83064C11.5288 4.26524 10.1806 5.78991 8.87714 7.25507C7.6582 8.63982 6.38183 10.0712 5.08152 11.3981C-0.405296 16.9998 -1.43597 23.589 1.92728 31.542C6.61477 42.62 12.9233 52.1861 20.674 59.9783C28.5046 67.8494 38.0343 74.1314 48.9952 78.6523H49.0048L49.0766 78.6829C51.2011 79.5513 53.4722 79.9975 55.7648 79.9968C59.9369 79.9917 63.9781 78.5281 67.1995 75.8555C70.4527 73.1616 73.9212 70.2538 77.2254 67.2575C79.7032 65.0123 80.0925 62.8508 79.984 61.4371ZM18.844 3.2295C20.2624 3.37585 21.4877 4.8378 22.2647 6.03437C23.991 8.69772 25.6966 11.4479 27.3463 14.1096C27.9398 15.065 28.5333 16.0203 29.1268 16.9756C31.8806 21.392 32.1104 24.25 29.6948 26.775L15.2989 5.00989C16.5928 3.72164 17.791 3.12174 18.844 3.2295ZM65.1733 73.3739C63.1277 75.0783 60.6636 76.1944 58.041 76.6043C55.4184 77.0142 52.7347 76.7027 50.2732 75.7027L50.2126 75.6786H50.203C29.197 67.0114 13.9412 51.739 4.86294 30.2795C1.9911 23.4796 2.75373 18.3539 7.35188 13.6593C8.70802 12.2746 10.0035 10.8126 11.2576 9.39893C11.8431 8.73792 12.4446 8.06565 13.0445 7.39821L27.2825 28.9156C26.0939 30.4853 25.7285 33.4189 26.3954 35.0143C28.2238 39.413 30.692 43.2166 33.7346 46.3303C36.9159 49.577 40.7457 52.1048 44.9698 53.7462C46.6371 54.404 49.1021 53.8169 50.9959 52.7362L72.3146 67.346C69.9134 69.4287 67.4883 71.4552 65.1733 73.3739ZM75.0907 64.8692C74.987 64.9641 74.8801 65.0573 74.7716 65.1506L53.5519 50.6068C55.8653 48.4886 57.8868 48.3053 60.5209 49.883L61.0554 50.2047C65.3966 52.8053 69.8847 55.4976 74.1733 58.3105C75.7815 59.3656 76.7165 60.5621 76.8026 61.688C76.8808 62.6964 76.3049 63.7675 75.0907 64.8692V64.8692Z" fill="white"/>
<path d="M45.6003 23.0354C47.7257 23.038 49.7633 23.8903 51.266 25.4054C52.7687 26.9205 53.6139 28.9747 53.616 31.1172C53.616 31.5437 53.7841 31.9528 54.0833 32.2544C54.3825 32.556 54.7883 32.7255 55.2114 32.7255C55.6346 32.7255 56.0404 32.556 56.3396 32.2544C56.6388 31.9528 56.8069 31.5437 56.8069 31.1172C56.8035 28.122 55.6218 25.2504 53.5209 23.1324C51.4201 21.0143 48.5716 19.8227 45.6003 19.8188C45.1772 19.8188 44.7714 19.9883 44.4722 20.2899C44.173 20.5915 44.0049 21.0006 44.0049 21.4271C44.0049 21.8537 44.173 22.2628 44.4722 22.5644C44.7714 22.866 45.1772 23.0354 45.6003 23.0354Z" fill="white"/>
<path d="M45.6004 13.3489C50.2738 13.354 54.7545 15.2277 58.0593 18.5587C61.3641 21.8898 63.2232 26.4063 63.2287 31.1174C63.2287 31.544 63.3968 31.953 63.696 32.2546C63.9952 32.5563 64.401 32.7257 64.8241 32.7257C65.2473 32.7257 65.6531 32.5563 65.9523 32.2546C66.2515 31.953 66.4196 31.544 66.4196 31.1174C66.4196 19.5457 57.0797 10.1323 45.6004 10.1323C45.1772 10.1323 44.7714 10.3018 44.4722 10.6034C44.173 10.905 44.0049 11.3141 44.0049 11.7406C44.0049 12.1672 44.173 12.5762 44.4722 12.8779C44.7714 13.1795 45.1772 13.3489 45.6004 13.3489Z" fill="white"/>
<path d="M45.6004 3.65727C60.6201 3.65727 72.8398 15.9752 72.8398 31.1174C72.8398 31.5439 73.0079 31.953 73.3071 32.2546C73.6063 32.5562 74.0121 32.7257 74.4353 32.7257C74.8584 32.7257 75.2642 32.5562 75.5634 32.2546C75.8626 31.953 76.0307 31.5439 76.0307 31.1174C76.0307 14.2029 62.3831 0.440674 45.6004 0.440674C45.1772 0.440674 44.7714 0.610119 44.4722 0.911734C44.173 1.21335 44.0049 1.62243 44.0049 2.04897C44.0049 2.47552 44.173 2.8846 44.4722 3.18621C44.7714 3.48783 45.1772 3.65727 45.6004 3.65727Z" fill="white"/>
</g>
<defs>
<clipPath id="clip0_1_747">
<rect width="80" height="80" fill="white"/>
</clipPath>
</defs>
</svg>
