<svg width="30" height="30" viewBox="0 0 30 30" fill="none" xmlns="http://www.w3.org/2000/svg">
<g clip-path="url(#clip0_1_366)">
<path d="M29.994 23.0391C29.9312 22.2249 29.4035 21.471 28.4677 20.8564C26.8398 19.7871 25.1454 18.7721 23.5072 17.792L23.3068 17.6714C21.7327 16.7281 20.3021 16.9748 18.9344 18.4265C18.8888 18.4737 18.8398 18.5175 18.7878 18.5574C18.7733 18.5673 18.7594 18.578 18.7459 18.5893C18.296 18.918 17.5535 19.1357 17.2945 19.0338C14.3993 17.8915 12.2813 15.7487 10.9985 12.6656C10.8944 12.4147 11.0267 11.7343 11.178 11.5763C13.9206 9.63913 12.9257 7.30992 11.9385 5.72614C11.7139 5.36669 11.4909 5.00864 11.2696 4.652C10.6497 3.64902 10.0054 2.61227 9.35083 1.60327C8.71962 0.629845 7.99209 0.0954878 7.18857 0.0116552C6.40719 -0.0691618 5.62401 0.284262 4.8546 1.06167C4.3233 1.59965 3.81774 2.1714 3.32893 2.72083C2.87183 3.24011 2.39319 3.77688 1.90557 4.27445C-0.151986 6.37509 -0.538488 8.84604 0.72273 11.8284C2.48054 15.9827 4.84622 19.57 7.75277 22.4921C10.6892 25.4437 14.2629 27.7994 18.3732 29.4948H18.3768L18.4037 29.5063C19.2004 29.8319 20.0521 29.9992 20.9118 29.999C22.4763 29.9971 23.9918 29.4482 25.1998 28.446C26.4198 27.4358 27.7205 26.3453 28.9595 25.2217C29.8887 24.3798 30.0347 23.5692 29.994 23.0391ZM7.06651 1.21125C7.5984 1.26613 8.0579 1.81436 8.34927 2.26307C8.99663 3.26183 9.63622 4.29315 10.2549 5.2913C10.4774 5.64955 10.7 6.0078 10.9226 6.36604C11.9552 8.02219 12.0414 9.09392 11.1356 10.0408L5.73709 1.87889C6.22231 1.3958 6.67164 1.17084 7.06651 1.21125ZM24.44 27.5154C23.6729 28.1546 22.7488 28.5731 21.7654 28.7268C20.7819 28.8805 19.7755 28.7637 18.8524 28.3887L18.8297 28.3796H18.8261C10.9489 25.1295 5.22794 19.4023 1.8236 11.355C0.746662 8.80503 1.03265 6.88291 2.75695 5.12243C3.26551 4.60315 3.75133 4.05492 4.22159 3.52478C4.44117 3.2769 4.66673 3.0248 4.89169 2.77451L10.2309 10.8435C9.78519 11.4322 9.64818 12.5323 9.89827 13.1306C10.5839 14.7801 11.5095 16.2064 12.6505 17.374C13.8435 18.5916 15.2796 19.5395 16.8637 20.155C17.4889 20.4017 18.4133 20.1815 19.1235 19.7762L27.118 25.2549C26.2175 26.0359 25.3081 26.7959 24.44 27.5154ZM28.159 24.3261C28.1201 24.3617 28.08 24.3967 28.0394 24.4317L20.082 18.9777C20.9495 18.1834 21.7075 18.1147 22.6953 18.7063L22.8958 18.8269C24.5237 19.8022 26.2068 20.8118 27.815 21.8666C28.4181 22.2623 28.7687 22.711 28.801 23.1332C28.8303 23.5113 28.6143 23.913 28.159 24.3261Z" fill="#DE1B41"/>
<path d="M17.1003 8.63835C17.8973 8.63931 18.6614 8.95894 19.2249 9.5271C19.7884 10.0953 20.1053 10.8656 20.1061 11.669C20.1061 11.8289 20.1691 11.9824 20.2813 12.0955C20.3936 12.2086 20.5457 12.2721 20.7044 12.2721C20.8631 12.2721 21.0153 12.2086 21.1275 12.0955C21.2397 11.9824 21.3027 11.8289 21.3027 11.669C21.3014 10.5458 20.8583 9.46897 20.0705 8.6747C19.2827 7.88043 18.2145 7.43357 17.1003 7.43213C16.9416 7.43213 16.7894 7.49567 16.6772 7.60878C16.565 7.72188 16.502 7.87529 16.502 8.03524C16.502 8.1952 16.565 8.3486 16.6772 8.46171C16.7894 8.57481 16.9416 8.63835 17.1003 8.63835Z" fill="#DE1B41"/>
<path d="M17.1003 5.00578C18.8528 5.0077 20.5331 5.71031 21.7724 6.95946C23.0117 8.20862 23.7088 9.90231 23.7109 11.669C23.7109 11.8289 23.7739 11.9823 23.8861 12.0954C23.9983 12.2085 24.1505 12.2721 24.3092 12.2721C24.4679 12.2721 24.62 12.2085 24.7322 12.0954C24.8444 11.9823 24.9075 11.8289 24.9075 11.669C24.9075 7.32958 21.405 3.79956 17.1003 3.79956C16.9416 3.79956 16.7894 3.8631 16.6772 3.97621C16.565 4.08931 16.502 4.24272 16.502 4.40267C16.502 4.56263 16.565 4.71603 16.6772 4.82914C16.7894 4.94224 16.9416 5.00578 17.1003 5.00578Z" fill="#DE1B41"/>
<path d="M17.1003 1.37151C22.7327 1.37151 27.315 5.99074 27.315 11.669C27.315 11.829 27.3781 11.9824 27.4903 12.0955C27.6025 12.2086 27.7547 12.2722 27.9133 12.2722C28.072 12.2722 28.2242 12.2086 28.3364 12.0955C28.4486 11.9824 28.5116 11.829 28.5116 11.669C28.5116 5.32611 23.3938 0.165283 17.1003 0.165283C16.9416 0.165283 16.7894 0.228825 16.6772 0.341931C16.565 0.455036 16.502 0.60844 16.502 0.768395C16.502 0.928351 16.565 1.08175 16.6772 1.19486C16.7894 1.30797 16.9416 1.37151 17.1003 1.37151Z" fill="#DE1B41"/>
</g>
<defs>
<clipPath id="clip0_1_366">
<rect width="30" height="30" fill="white"/>
</clipPath>
</defs>
</svg>
