<svg width="30" height="30" viewBox="0 0 30 30" fill="none" xmlns="http://www.w3.org/2000/svg">
<g clip-path="url(#clip0_1_375)">
<path d="M9.36868 6.8865C9.36868 6.46497 9.71031 6.12273 10.1321 6.12273H16.0327C16.4545 6.12273 16.7961 6.46466 16.7961 6.8865C16.7961 7.30834 16.4545 7.65028 16.0327 7.65028H10.1321C9.71031 7.65028 9.36868 7.30834 9.36868 6.8865ZM10.0363 11.3816H19.9721C20.394 11.3816 20.7356 11.0397 20.7356 10.6178C20.7356 10.196 20.394 9.85405 19.9721 9.85405H10.0363C9.61449 9.85405 9.27286 10.196 9.27286 10.6178C9.27286 11.0397 9.61449 11.3816 10.0363 11.3816ZM10.0363 15.1129H19.9721C20.394 15.1129 20.7356 14.771 20.7356 14.3492C20.7356 13.9273 20.394 13.5854 19.9721 13.5854H10.0363C9.61449 13.5854 9.27286 13.9273 9.27286 14.3492C9.27286 14.771 9.61449 15.1129 10.0363 15.1129ZM29.6389 12.4748V29.0834C29.6389 29.5053 29.2972 29.8469 28.8754 29.8469H1.1248C0.702961 29.8469 0.361328 29.5053 0.361328 29.0834V12.4748C0.361328 12.2479 0.462042 12.0327 0.636532 11.8876L5.29021 8.01946V3.76283C5.29021 3.3413 5.63184 2.99905 6.05368 2.99905H11.3095L14.5109 0.32997C14.795 0.0936432 15.207 0.0939493 15.4899 0.330888L18.6788 2.99905H20.1197C20.3254 2.99905 20.5222 3.08201 20.6658 3.22895C23.2177 5.8414 24.4936 7.15191 24.4936 7.15191C24.6326 7.29456 24.71 7.48558 24.71 7.68456V8.01364L29.3637 11.8873C29.5382 12.033 29.6389 12.2479 29.6389 12.4748ZM1.88827 13.8217V26.9528L9.1247 18.1527L1.88827 13.8217ZM2.74112 28.32H27.2591L19.5506 18.9459L15.3922 21.4347C15.2713 21.5066 15.1357 21.543 15.0001 21.543C14.8645 21.543 14.7286 21.5072 14.608 21.4347L10.4496 18.9459L2.74112 28.32ZM28.1119 26.9528V13.8217L20.8755 18.1527L28.1119 26.9528ZM20.8835 6.83446H22.051C21.7229 6.49803 21.3316 6.09732 20.8835 5.63783V6.83446ZM24.7103 10.001V14.0776L27.5594 12.3725L24.7103 10.001ZM13.6945 2.99905H16.299L14.9992 1.9114L13.6945 2.99905ZM6.81745 4.5266V14.992L15.0001 19.8894L23.1831 14.9917V8.3617H20.12C19.6982 8.3617 19.3565 8.01977 19.3565 7.59793V4.5266H6.81745ZM5.29021 10.0053L2.44174 12.3728L5.29021 14.0776V10.0053Z" fill="#DE1B41"/>
</g>
<defs>
<clipPath id="clip0_1_375">
<rect width="30" height="30" fill="white"/>
</clipPath>
</defs>
</svg>
