<svg width="30" height="30" viewBox="0 0 30 30" fill="none" xmlns="http://www.w3.org/2000/svg">
<path d="M6.2002 9.20599C6.2002 4.34595 10.1404 0.405762 15.0004 0.405762C19.8605 0.405762 23.8006 4.34595 23.8006 9.20599C23.8006 16.2477 17.6678 17.9261 15.5581 25.7998L15.0004 27.8808L14.4427 25.7998C12.333 17.9261 6.2002 16.2477 6.2002 9.20599ZM11.1729 28.4385H18.8279V29.5943H11.1729V28.4385ZM15.0004 5.24773C17.1863 5.24773 18.959 7.0201 18.959 9.20599C18.959 11.3922 17.1863 13.1646 15.0004 13.1646C12.8145 13.1646 11.0418 11.3919 11.0418 9.20599C11.0418 7.0201 12.8145 5.24773 15.0004 5.24773ZM15.0004 6.40356C13.4527 6.40356 12.198 7.65826 12.198 9.20599C12.198 10.7541 13.4527 12.0084 15.0004 12.0084C16.5482 12.0084 17.8028 10.7541 17.8028 9.20599C17.8028 7.65826 16.5482 6.40356 15.0004 6.40356ZM22.6448 9.20599C22.6448 4.9841 19.2223 1.5616 15.0004 1.5616C10.7785 1.5616 7.35603 4.9841 7.35603 9.20599C7.35603 15.1815 12.5109 17.1214 15.0004 23.7592C17.49 17.1214 22.6448 15.1811 22.6448 9.20599Z" fill="#DE1B41"/>
</svg>
