<svg width="150" height="150" viewBox="0 0 150 150" fill="none" xmlns="http://www.w3.org/2000/svg">
<rect width="150" height="150" rx="20" fill="#FFDDE4"/>
<path d="M75 31.54C71.0532 31.5409 67.5823 33.9664 66.214 37.5032H60.0403C59.1464 37.5032 58.3002 37.8926 57.7454 38.4706C57.1905 39.0485 56.8915 39.7719 56.778 40.5122L49.8688 85.5317C49.7121 86.5535 50.1711 87.5172 50.8026 88.1044C51.4342 88.6915 52.2495 89.026 53.1433 89.026H96.8567C97.7506 89.026 98.5689 88.6915 99.2005 88.1044C99.832 87.5172 100.291 86.5535 100.134 85.5317L93.2251 40.5122C93.1116 39.7719 92.8095 39.0485 92.2547 38.4706C91.6998 37.8926 90.8536 37.5032 89.9597 37.5032H83.7891C82.4229 33.962 78.9512 31.5392 75 31.54ZM75 33.1086C78.0972 33.108 80.8019 34.8762 82.0709 37.5032H67.9199C69.1911 34.8764 71.9029 33.1093 75 33.1086ZM60.0403 40.6282H89.9597C90.0219 40.6282 89.9626 40.6055 89.9964 40.6404C90.03 40.6753 90.1053 40.8005 90.1337 40.9852L97.0185 85.843C96.97 85.8696 96.9076 85.901 96.8598 85.901H53.1433C53.0977 85.901 53.0304 85.869 52.9816 85.843L59.8694 40.9852C59.8977 40.8005 59.9732 40.6753 60.0067 40.6404C60.0403 40.6054 59.9781 40.6282 60.0403 40.6282ZM66.9373 43.5243C65.0374 43.5243 63.4674 45.0531 63.4674 46.9392C63.4674 48.8253 65.0374 50.3511 66.9373 50.3511C67.1196 50.3511 67.2962 50.3263 67.4713 50.2992C69.0958 52.7235 71.8905 54.2841 75 54.2848C78.1071 54.2855 80.9004 52.7268 82.5257 50.3053C82.6803 50.3263 82.8325 50.3511 82.9926 50.3511C84.8924 50.3511 86.4655 48.8253 86.4655 46.9392C86.4655 45.0531 84.8924 43.5243 82.9926 43.5243C81.0927 43.5243 79.5227 45.0531 79.5227 46.9392C79.5227 48.0972 80.1179 49.1143 81.015 49.7316C79.6528 51.5547 77.4591 52.7289 75 52.7284C72.526 52.7279 70.3206 51.54 68.9606 49.698C69.8326 49.0778 70.4102 48.0778 70.4102 46.9392C70.4102 45.0531 68.8371 43.5243 66.9373 43.5243ZM66.9373 45.0929C68.011 45.0929 68.8416 45.9162 68.8416 46.9392C68.8416 47.5076 68.5697 47.9989 68.158 48.34C67.9689 47.908 67.8129 47.4587 67.7124 46.985C67.6765 46.7884 67.5667 46.6131 67.4055 46.495C67.2443 46.377 67.044 46.3251 66.8457 46.3502C66.7372 46.3647 66.6329 46.4018 66.5396 46.4592C66.4463 46.5166 66.3662 46.5929 66.3043 46.6833C66.2424 46.7736 66.2003 46.876 66.1805 46.9837C66.1607 47.0914 66.1638 47.202 66.1896 47.3085C66.2944 47.8029 66.4449 48.2768 66.629 48.7336C65.7142 48.586 65.0238 47.8571 65.0238 46.9392C65.0238 45.9162 65.8636 45.0929 66.9373 45.0929ZM82.9926 45.0929C84.0663 45.0929 84.9091 45.9162 84.9091 46.9392C84.9091 47.8318 84.2536 48.5451 83.3771 48.7214C83.559 48.2683 83.7094 47.7984 83.8135 47.3085C83.8451 47.2049 83.8548 47.0959 83.842 46.9883C83.8292 46.8808 83.7942 46.7771 83.7391 46.6838C83.6841 46.5905 83.6103 46.5097 83.5224 46.4464C83.4345 46.3832 83.3344 46.3389 83.2285 46.3164C83.1225 46.2939 83.0131 46.2936 82.907 46.3157C82.801 46.3377 82.7007 46.3816 82.6125 46.4445C82.5244 46.5073 82.4502 46.5878 82.3948 46.6809C82.3394 46.7739 82.3039 46.8775 82.2907 46.985C82.1873 47.4716 82.0205 47.931 81.8237 48.3735C81.3798 48.033 81.0791 47.5301 81.0791 46.9392C81.0791 45.9162 81.9189 45.0929 82.9926 45.0929ZM44.2475 93.2985C44.1924 93.2986 44.1374 93.3016 44.0827 93.3076C43.7939 93.3356 43.5186 93.4442 43.2878 93.621C43.0571 93.7979 42.88 94.036 42.7765 94.3086L40.1886 101.154L32.9254 101.502C32.6076 101.515 32.3015 101.626 32.0482 101.82C31.795 102.013 31.6067 102.28 31.5087 102.584C31.4107 102.889 31.4076 103.216 31.4999 103.522C31.5923 103.828 31.7756 104.099 32.0252 104.297L37.6984 108.884L35.7819 115.939C35.7012 116.246 35.7146 116.569 35.8204 116.867C35.9262 117.166 36.1193 117.425 36.3744 117.61C36.6295 117.796 36.9345 117.9 37.2493 117.908C37.5641 117.915 37.8739 117.827 38.1378 117.655L44.2352 113.645L50.3113 117.655C50.5752 117.828 50.8854 117.917 51.2008 117.91C51.5162 117.903 51.822 117.799 52.0776 117.613C52.3333 117.428 52.5268 117.168 52.6327 116.869C52.7385 116.57 52.7516 116.246 52.6703 115.939L50.7538 108.884L56.427 104.297C56.6766 104.099 56.8599 103.828 56.9522 103.522C57.0446 103.216 57.0415 102.889 56.9435 102.584C56.8455 102.28 56.6572 102.013 56.4039 101.82C56.1507 101.626 55.8446 101.515 55.5267 101.502L48.2605 101.154L45.6909 94.3086C45.5794 94.0136 45.382 93.7594 45.1244 93.5792C44.8669 93.3989 44.5612 93.3011 44.2475 93.2985ZM75.0214 93.2985C74.9653 93.2985 74.9093 93.3015 74.8535 93.3076C74.5653 93.3362 74.2907 93.445 74.0605 93.6218C73.8303 93.7986 73.6537 94.0364 73.5504 94.3086L70.9625 101.154L63.6963 101.502C63.3785 101.515 63.0724 101.626 62.8191 101.82C62.5659 102.013 62.3776 102.28 62.2796 102.584C62.1815 102.889 62.1785 103.216 62.2708 103.522C62.3631 103.828 62.5464 104.099 62.796 104.297L68.4723 108.884L66.5527 115.939C66.4714 116.246 66.4846 116.57 66.5904 116.869C66.6962 117.168 66.8898 117.428 67.1454 117.613C67.4011 117.799 67.7068 117.903 68.0222 117.91C68.3376 117.917 68.6478 117.828 68.9118 117.655L75.0092 113.645L81.0852 117.655C81.3492 117.827 81.659 117.915 81.9737 117.908C82.2885 117.9 82.5936 117.796 82.8486 117.61C83.1037 117.425 83.2969 117.166 83.4027 116.867C83.5084 116.569 83.5219 116.246 83.4412 115.939L81.5247 108.884L87.2009 104.297C87.4507 104.099 87.634 103.828 87.7263 103.521C87.8185 103.215 87.8152 102.888 87.7168 102.583C87.6184 102.279 87.4297 102.012 87.1759 101.818C86.9222 101.625 86.6157 101.514 86.2976 101.502L79.0344 101.154L76.4649 94.3086C76.3534 94.0136 76.1559 93.7594 75.8983 93.5792C75.6408 93.3989 75.3351 93.3011 75.0214 93.2985ZM105.792 93.2985C105.737 93.2986 105.682 93.3016 105.627 93.3076C105.339 93.3362 105.065 93.445 104.834 93.6218C104.604 93.7986 104.428 94.0364 104.324 94.3086L101.736 101.154L94.4702 101.502C94.1524 101.515 93.8463 101.626 93.593 101.82C93.3398 102.013 93.1515 102.28 93.0535 102.584C92.9555 102.889 92.9524 103.216 93.0447 103.522C93.1371 103.828 93.3204 104.099 93.57 104.297L99.2432 108.884L97.3267 115.939C97.2454 116.246 97.2585 116.57 97.3643 116.869C97.4701 117.168 97.6637 117.428 97.9193 117.613C98.175 117.799 98.4808 117.903 98.7962 117.91C99.1116 117.917 99.4217 117.828 99.6857 117.655L105.78 113.645L111.859 117.655C112.123 117.827 112.433 117.915 112.748 117.908C113.062 117.9 113.367 117.796 113.623 117.61C113.878 117.425 114.071 117.166 114.177 116.867C114.282 116.569 114.296 116.246 114.215 115.939L112.299 108.884L117.972 104.297C118.221 104.099 118.405 103.828 118.497 103.522C118.589 103.216 118.586 102.889 118.488 102.584C118.39 102.28 118.202 102.013 117.949 101.82C117.695 101.626 117.389 101.515 117.072 101.502L109.805 101.154L107.239 94.3086C107.127 94.0132 106.929 93.7586 106.671 93.5783C106.413 93.398 106.107 93.3005 105.792 93.2985V93.2985ZM44.2352 99.283L45.7123 103.217C45.8177 103.504 46.0046 103.754 46.2497 103.936C46.4949 104.117 46.7876 104.223 47.0917 104.239L51.2695 104.45L48.0103 107.071C47.7749 107.264 47.6007 107.522 47.509 107.813C47.4174 108.104 47.4124 108.416 47.4945 108.71L48.5871 112.778L45.0775 110.465C44.824 110.298 44.5276 110.209 44.2246 110.209C43.9216 110.209 43.6252 110.298 43.3716 110.465L39.8651 112.778L40.976 108.71C41.0557 108.414 41.0474 108.101 40.9519 107.809C40.8564 107.518 40.678 107.261 40.4389 107.071L37.1796 104.45L41.3605 104.239C41.6646 104.223 41.9573 104.117 42.2025 103.936C42.4476 103.754 42.6344 103.504 42.7399 103.217L44.2352 99.283ZM75.0092 99.283L76.4832 103.217C76.5888 103.504 76.7761 103.755 77.0219 103.936C77.2676 104.118 77.561 104.223 77.8656 104.239L82.0435 104.45L78.7842 107.071C78.5483 107.264 78.3735 107.521 78.2813 107.812C78.1891 108.104 78.1836 108.416 78.2654 108.71L79.3579 112.778L75.8515 110.465C75.5979 110.298 75.3015 110.209 74.9985 110.209C74.6955 110.209 74.3991 110.298 74.1455 110.465L70.636 112.778L71.7499 108.71C71.8297 108.414 71.8213 108.101 71.7258 107.809C71.6303 107.518 71.452 107.261 71.2128 107.071L67.9535 104.45L72.1314 104.239C72.436 104.223 72.7294 104.118 72.9751 103.936C73.2209 103.755 73.4082 103.504 73.5138 103.217L75.0092 99.283ZM105.78 99.283L107.257 103.217C107.363 103.504 107.549 103.754 107.795 103.936C108.04 104.117 108.332 104.223 108.636 104.239L112.817 104.45L109.558 107.071C109.322 107.264 109.147 107.521 109.055 107.812C108.963 108.104 108.958 108.416 109.039 108.71L110.132 112.778L106.625 110.465C106.372 110.298 106.075 110.209 105.772 110.209C105.469 110.209 105.173 110.298 104.919 110.465L101.41 112.778L102.521 108.71C102.601 108.414 102.593 108.101 102.498 107.81C102.403 107.519 102.225 107.262 101.987 107.071L98.7274 104.45L102.905 104.239C103.209 104.223 103.502 104.117 103.747 103.936C103.992 103.754 104.179 103.504 104.285 103.217L105.78 99.283Z" fill="#DE1B41"/>
</svg>
