<svg width="188" height="188" viewBox="0 0 188 188" fill="none" xmlns="http://www.w3.org/2000/svg">
<circle cx="94" cy="94" r="94" fill="#DE1B41"/>
<g clip-path="url(#clip0_1_745)">
<path d="M133.984 115.437C133.816 113.266 132.409 111.255 129.914 109.617C125.573 106.765 121.054 104.058 116.686 101.445L116.151 101.123C111.954 98.6078 108.139 99.2656 104.492 103.137C104.37 103.263 104.24 103.379 104.101 103.486C104.062 103.512 104.025 103.541 103.989 103.571C102.789 104.448 100.809 105.028 100.119 104.756C92.3981 101.71 86.7501 95.9959 83.3295 87.7743C83.0519 87.1053 83.4044 85.2911 83.8081 84.8697C91.1217 79.7039 88.4685 73.4926 85.8359 69.2692C85.2371 68.3107 84.6425 67.3559 84.0522 66.4048C82.3993 63.7302 80.681 60.9656 78.9355 58.2749C77.2523 55.6791 75.3122 54.2541 73.1695 54.0306C71.0858 53.8151 68.9974 54.7575 66.9456 56.8306C65.5288 58.2652 64.1806 59.7899 62.8771 61.2551C61.6582 62.6398 60.3818 64.0712 59.0815 65.3981C53.5947 70.9998 52.564 77.589 55.9273 85.542C60.6148 96.62 66.9233 106.186 74.674 113.978C82.5046 121.849 92.0343 128.131 102.995 132.652H103.005L103.077 132.683C105.201 133.551 107.472 133.997 109.765 133.997C113.937 133.992 117.978 132.528 121.2 129.855C124.453 127.162 127.921 124.254 131.225 121.257C133.703 119.012 134.092 116.851 133.984 115.437ZM72.844 57.2295C74.2624 57.3759 75.4877 58.8378 76.2647 60.0344C77.991 62.6977 79.6966 65.4479 81.3463 68.1096C81.9398 69.065 82.5333 70.0203 83.1268 70.9756C85.8806 75.392 86.1104 78.25 83.6948 80.775L69.2989 59.0099C70.5928 57.7216 71.791 57.1217 72.844 57.2295ZM119.173 127.374C117.128 129.078 114.664 130.194 112.041 130.604C109.418 131.014 106.735 130.703 104.273 129.703L104.213 129.679H104.203C83.197 121.011 67.9412 105.739 58.8629 84.2795C55.9911 77.4796 56.7537 72.3539 61.3519 67.6593C62.708 66.2746 64.0035 64.8126 65.2576 63.3989C65.8431 62.7379 66.4446 62.0657 67.0445 61.3982L81.2825 82.9156C80.0939 84.4853 79.7285 87.4189 80.3954 89.0143C82.2238 93.413 84.692 97.2166 87.7346 100.33C90.9159 103.577 94.7457 106.105 98.9698 107.746C100.637 108.404 103.102 107.817 104.996 106.736L126.315 121.346C123.913 123.429 121.488 125.455 119.173 127.374ZM129.091 118.869C128.987 118.964 128.88 119.057 128.772 119.151L107.552 104.607C109.865 102.489 111.887 102.305 114.521 103.883L115.055 104.205C119.397 106.805 123.885 109.498 128.173 112.311C129.782 113.366 130.716 114.562 130.803 115.688C130.881 116.696 130.305 117.767 129.091 118.869Z" fill="white"/>
<path d="M99.6003 77.0354C101.726 77.038 103.763 77.8903 105.266 79.4054C106.769 80.9205 107.614 82.9747 107.616 85.1172C107.616 85.5437 107.784 85.9528 108.083 86.2544C108.382 86.556 108.788 86.7255 109.211 86.7255C109.635 86.7255 110.04 86.556 110.34 86.2544C110.639 85.9528 110.807 85.5437 110.807 85.1172C110.804 82.122 109.622 79.2504 107.521 77.1324C105.42 75.0143 102.572 73.8227 99.6003 73.8188C99.1772 73.8188 98.7714 73.9883 98.4722 74.2899C98.173 74.5915 98.0049 75.0006 98.0049 75.4271C98.0049 75.8537 98.173 76.2628 98.4722 76.5644C98.7714 76.866 99.1772 77.0354 99.6003 77.0354Z" fill="white"/>
<path d="M99.6004 67.3489C104.274 67.354 108.754 69.2277 112.059 72.5587C115.364 75.8898 117.223 80.4063 117.229 85.1174C117.229 85.544 117.397 85.953 117.696 86.2546C117.995 86.5563 118.401 86.7257 118.824 86.7257C119.247 86.7257 119.653 86.5563 119.952 86.2546C120.252 85.953 120.42 85.544 120.42 85.1174C120.42 73.5457 111.08 64.1323 99.6004 64.1323C99.1772 64.1323 98.7714 64.3018 98.4722 64.6034C98.173 64.905 98.0049 65.3141 98.0049 65.7406C98.0049 66.1672 98.173 66.5762 98.4722 66.8779C98.7714 67.1795 99.1772 67.3489 99.6004 67.3489Z" fill="white"/>
<path d="M99.6004 57.6573C114.62 57.6573 126.84 69.9752 126.84 85.1174C126.84 85.5439 127.008 85.953 127.307 86.2546C127.606 86.5562 128.012 86.7257 128.435 86.7257C128.858 86.7257 129.264 86.5562 129.563 86.2546C129.863 85.953 130.031 85.5439 130.031 85.1174C130.031 68.2029 116.383 54.4407 99.6004 54.4407C99.1772 54.4407 98.7714 54.6101 98.4722 54.9117C98.173 55.2133 98.0049 55.6224 98.0049 56.049C98.0049 56.4755 98.173 56.8846 98.4722 57.1862C98.7714 57.4878 99.1772 57.6573 99.6004 57.6573Z" fill="white"/>
</g>
<defs>
<clipPath id="clip0_1_745">
<rect width="80" height="80" fill="white" transform="translate(54 54)"/>
</clipPath>
</defs>
</svg>
