<svg width="188" height="188" viewBox="0 0 188 188" fill="none" xmlns="http://www.w3.org/2000/svg">
<circle cx="94" cy="94" r="94" fill="#DE1B41"/>
<path d="M70.5332 78.5493C70.5332 65.5892 81.0404 55.082 94.0005 55.082C106.961 55.082 117.468 65.5892 117.468 78.5493C117.468 97.3271 101.114 101.803 95.4877 122.799L94.0005 128.349L92.5132 122.799C86.8873 101.803 70.5332 97.3271 70.5332 78.5493ZM83.7938 129.836H104.207V132.918H83.7938V129.836ZM94.0005 67.9939C99.8295 67.9939 104.557 72.7203 104.557 78.5493C104.557 84.3793 99.8295 89.1056 94.0005 89.1056C88.1715 89.1056 83.4442 84.3783 83.4442 78.5493C83.4442 72.7203 88.1715 67.9939 94.0005 67.9939ZM94.0005 71.0762C89.8732 71.0762 86.5273 74.422 86.5273 78.5493C86.5273 82.6775 89.8732 86.0224 94.0005 86.0224C98.1278 86.0224 101.474 82.6775 101.474 78.5493C101.474 74.422 98.1278 71.0762 94.0005 71.0762ZM114.386 78.5493C114.386 67.2909 105.259 58.1643 94.0005 58.1643C82.7421 58.1643 73.6154 67.2909 73.6154 78.5493C73.6154 94.4839 87.3617 99.6572 94.0005 117.358C100.639 99.6572 114.386 94.483 114.386 78.5493Z" fill="white"/>
</svg>
