<svg width="241" height="265" viewBox="0 0 241 265" fill="none" xmlns="http://www.w3.org/2000/svg">
<g filter="url(#filter0_i_2_45)">
<path d="M135.424 105.184C138.734 100.903 145.431 101.785 147.52 106.776L161.516 140.203C162.282 142.031 163.781 143.454 165.647 144.122L199.76 156.349C204.854 158.175 206.085 164.816 201.984 168.346L174.518 191.986C173.016 193.279 172.126 195.144 172.067 197.126L170.98 233.348C170.818 238.757 164.882 241.98 160.258 239.17L129.287 220.354C127.593 219.324 125.544 219.055 123.642 219.611L88.8563 229.771C83.6625 231.288 78.7628 226.638 80.0058 221.372L88.3309 186.102C88.7862 184.173 88.4097 182.142 87.2932 180.504L66.8811 150.56C63.8334 146.09 66.7413 139.993 72.1337 139.548L108.25 136.567C110.225 136.403 112.041 135.418 113.254 133.85L135.424 105.184Z" fill="url(#paint0_linear_2_45)"/>
</g>
<path d="M148.336 106.435C145.984 100.819 138.449 99.8268 134.724 104.643L112.554 133.309C111.494 134.68 109.905 135.543 108.177 135.686L72.061 138.667C65.9934 139.168 62.7214 146.028 66.1507 151.058L86.5628 181.002C87.5395 182.434 87.8689 184.212 87.4706 185.899L79.1455 221.169C77.7469 227.094 83.26 232.326 89.1041 230.619L123.89 220.459C125.554 219.973 127.346 220.209 128.828 221.109L159.799 239.926C165.002 243.087 171.681 239.46 171.864 233.375L172.95 197.152C173.002 195.419 173.78 193.788 175.095 192.656L202.561 169.016C207.175 165.044 205.79 157.571 200.059 155.517L165.945 143.29C164.313 142.705 163.001 141.461 162.332 139.862L148.336 106.435Z" stroke="black" stroke-opacity="0.05" stroke-width="1.76788"/>
<g filter="url(#filter1_i_2_45)">
<path d="M52.4268 14.8241C55.1835 11.4868 60.5156 12.3638 62.0583 16.4082L67.8045 31.4728C68.3696 32.9544 69.5315 34.1301 71.0063 34.7128L86.0017 40.6372C90.0275 42.2278 90.8412 47.5699 87.4715 50.2869L74.9198 60.4071C73.6854 61.4024 72.9263 62.8707 72.8279 64.4533L71.8272 80.5456C71.5585 84.8659 66.7293 87.2905 63.104 84.9253L49.6005 76.1153C48.2724 75.2489 46.6414 74.9806 45.1058 75.3761L29.4919 79.3972C25.3001 80.4767 21.5018 76.6331 22.631 72.4544L26.8369 56.8893C27.2506 55.3585 27.0017 53.7244 26.1511 52.3862L17.5018 38.7791C15.1798 35.126 17.6615 30.3259 21.9847 30.1085L38.0877 29.2987C39.6713 29.2191 41.1486 28.4774 42.1584 27.2548L52.4268 14.8241Z" fill="url(#paint1_linear_2_45)"/>
</g>
<path d="M62.8842 16.0932C61.1 11.4158 54.9335 10.4016 51.7453 14.2612L41.4769 26.6919C40.6251 27.7231 39.3791 28.3487 38.0433 28.4159L21.9403 29.2256C16.9405 29.4771 14.0703 35.0284 16.7558 39.2533L25.4051 52.8603C26.1226 53.9891 26.3325 55.3675 25.9836 56.6587L21.7776 72.2238C20.4717 77.0566 24.8645 81.5017 29.7124 80.2532L45.3262 76.2321C46.6215 75.8985 47.9973 76.1248 49.1175 76.8556L62.621 85.6656C66.8137 88.401 72.3987 85.5969 72.7094 80.6004L73.7101 64.5082C73.7931 63.1733 74.4335 61.9347 75.4747 61.0952L88.0263 50.975C91.9234 47.8328 90.9824 41.6546 86.3265 39.8151L71.3311 33.8907C70.0871 33.3992 69.1071 32.4075 68.6304 31.1578L62.8842 16.0932Z" stroke="black" stroke-opacity="0.05" stroke-width="1.76788"/>
<g filter="url(#filter2_i_2_45)">
<path d="M205.497 65.3732C206.559 62.3052 210.536 61.5229 212.68 63.96L216.844 68.6909C217.629 69.5836 218.754 70.105 219.943 70.1276L226.244 70.2472C229.49 70.3088 231.463 73.849 229.808 76.6419L226.595 82.0635C225.989 83.0866 225.841 84.3174 226.187 85.4552L228.02 91.4847C228.964 94.5908 226.207 97.5611 223.039 96.8501L216.89 95.4699C215.73 95.2094 214.514 95.4488 213.538 96.1294L208.37 99.7362C205.708 101.594 202.031 99.8898 201.729 96.6575L201.141 90.3829C201.03 89.1989 200.427 88.1159 199.478 87.3988L194.451 83.5984C191.861 81.6407 192.346 77.617 195.326 76.3303L201.112 73.8326C202.204 73.3612 203.048 72.4526 203.437 71.3288L205.497 65.3732Z" fill="url(#paint2_linear_2_45)"/>
</g>
<path d="M213.344 63.376C210.752 60.4303 205.945 61.376 204.662 65.0842L202.601 71.0397C202.293 71.929 201.626 72.648 200.762 73.021L194.976 75.5187C191.374 77.074 190.788 81.9373 193.918 84.3036L198.945 88.1039C199.696 88.6714 200.173 89.5284 200.261 90.4653L200.849 96.7399C201.214 100.647 205.659 102.707 208.876 100.461L214.044 96.8543C214.816 96.3157 215.779 96.1263 216.697 96.3324L222.846 97.7126C226.674 98.5719 230.007 94.9818 228.866 91.2275L227.032 85.1981C226.758 84.2977 226.876 83.3237 227.356 82.5141L230.568 77.0925C232.569 73.7168 230.184 69.4379 226.261 69.3634L219.96 69.2438C219.019 69.2259 218.129 68.8134 217.507 68.1069L213.344 63.376Z" stroke="black" stroke-opacity="0.05" stroke-width="1.76788"/>
<defs>
<filter id="filter0_i_2_45" x="63.8754" y="100.673" width="142.334" height="180.839" filterUnits="userSpaceOnUse" color-interpolation-filters="sRGB">
<feFlood flood-opacity="0" result="BackgroundImageFix"/>
<feBlend mode="normal" in="SourceGraphic" in2="BackgroundImageFix" result="shape"/>
<feColorMatrix in="SourceAlpha" type="matrix" values="0 0 0 0 0 0 0 0 0 0 0 0 0 0 0 0 0 0 127 0" result="hardAlpha"/>
<feOffset dy="39.5356"/>
<feGaussianBlur stdDeviation="24.7097"/>
<feComposite in2="hardAlpha" operator="arithmetic" k2="-1" k3="1"/>
<feColorMatrix type="matrix" values="0 0 0 0 1 0 0 0 0 1 0 0 0 0 1 0 0 0 0.3 0"/>
<feBlend mode="normal" in2="shape" result="effect1_innerShadow_2_45"/>
</filter>
<filter id="filter1_i_2_45" x="14.8423" y="11.0034" width="76.5015" height="116.153" filterUnits="userSpaceOnUse" color-interpolation-filters="sRGB">
<feFlood flood-opacity="0" result="BackgroundImageFix"/>
<feBlend mode="normal" in="SourceGraphic" in2="BackgroundImageFix" result="shape"/>
<feColorMatrix in="SourceAlpha" type="matrix" values="0 0 0 0 0 0 0 0 0 0 0 0 0 0 0 0 0 0 127 0" result="hardAlpha"/>
<feOffset dy="39.5356"/>
<feGaussianBlur stdDeviation="24.7097"/>
<feComposite in2="hardAlpha" operator="arithmetic" k2="-1" k3="1"/>
<feColorMatrix type="matrix" values="0 0 0 0 1 0 0 0 0 1 0 0 0 0 1 0 0 0 0.3 0"/>
<feBlend mode="normal" in2="shape" result="effect1_innerShadow_2_45"/>
</filter>
<filter id="filter2_i_2_45" x="191.001" y="60.7525" width="41.1756" height="81.057" filterUnits="userSpaceOnUse" color-interpolation-filters="sRGB">
<feFlood flood-opacity="0" result="BackgroundImageFix"/>
<feBlend mode="normal" in="SourceGraphic" in2="BackgroundImageFix" result="shape"/>
<feColorMatrix in="SourceAlpha" type="matrix" values="0 0 0 0 0 0 0 0 0 0 0 0 0 0 0 0 0 0 127 0" result="hardAlpha"/>
<feOffset dy="39.5356"/>
<feGaussianBlur stdDeviation="24.7097"/>
<feComposite in2="hardAlpha" operator="arithmetic" k2="-1" k3="1"/>
<feColorMatrix type="matrix" values="0 0 0 0 1 0 0 0 0 1 0 0 0 0 1 0 0 0 0.3 0"/>
<feBlend mode="normal" in2="shape" result="effect1_innerShadow_2_45"/>
</filter>
<linearGradient id="paint0_linear_2_45" x1="122.466" y1="145.887" x2="100.942" y2="243.322" gradientUnits="userSpaceOnUse">
<stop stop-color="#FEC90B"/>
<stop offset="1" stop-color="#FE9100"/>
</linearGradient>
<linearGradient id="paint1_linear_2_45" x1="46.515" y1="34.6345" x2="32.9617" y2="87.816" gradientUnits="userSpaceOnUse">
<stop stop-color="#FEC90B"/>
<stop offset="1" stop-color="#FE9100"/>
</linearGradient>
<linearGradient id="paint2_linear_2_45" x1="206.904" y1="74.7499" x2="210.123" y2="104.512" gradientUnits="userSpaceOnUse">
<stop stop-color="#FEC90B"/>
<stop offset="1" stop-color="#FE9100"/>
</linearGradient>
</defs>
</svg>
