<svg width="150" height="150" viewBox="0 0 150 150" fill="none" xmlns="http://www.w3.org/2000/svg">
<rect width="150" height="150" rx="20" fill="#FFDDE4"/>
<g clip-path="url(#clip0_1_113)">
<path fill-rule="evenodd" clip-rule="evenodd" d="M48.2171 48.2116L48.2946 48.2146L48.3713 48.2183L48.4487 48.2227L48.5255 48.2292L48.6024 48.2372L48.6793 48.2466L48.7562 48.2559L48.8332 48.2682L48.9095 48.2811L48.9865 48.2947L49.0629 48.3105L49.1393 48.3263L49.2165 48.3442L49.2929 48.3628L49.3687 48.3822L49.4453 48.4036L49.5218 48.4251L49.5985 48.4479L49.6744 48.4716L49.7511 48.4973L49.8263 48.523L49.9031 48.5502L49.9791 48.578L50.0552 48.6073L50.1335 48.6386L50.2837 48.6994L50.4354 48.7658L50.5879 48.8357L50.7399 48.9092L50.8919 48.9855L51.0448 49.0653L51.197 49.1487L51.3494 49.235L51.5018 49.324L51.655 49.4166L51.807 49.5121L51.9604 49.6104L52.1132 49.7108L52.2661 49.8154L52.419 49.9215L52.5721 50.0304L52.7252 50.1422L52.8784 50.2568L53.031 50.3735L53.1844 50.4924L53.3371 50.6148L53.4899 50.7386L53.6435 50.8645L53.7957 50.9919L53.9487 51.1229L54.1003 51.2553L54.2528 51.3897L54.4052 51.5257L54.5564 51.6645L54.709 51.8046L54.8595 51.947L55.0108 52.0901L55.1614 52.2353L55.3114 52.3827L55.4607 52.5308L55.61 52.6817L55.7587 52.832L55.9074 52.9851L56.0548 53.1397L56.2015 53.295L56.3482 53.4518L56.4942 53.6093L56.6389 53.7682L56.7836 53.9286L56.9276 54.0897L57.0695 54.2516L57.2122 54.4143L57.3527 54.5777L57.4933 54.7425L57.6325 54.9074L57.771 55.073L57.9088 55.2394L58.1802 55.5737L58.3138 55.7417L58.4466 55.909L58.5781 56.0777L58.7089 56.2458L58.8383 56.4154L58.9662 56.5836L59.0928 56.7533L59.2186 56.9223L59.4646 57.2606L59.5854 57.4292L59.7048 57.5978L59.8228 57.7664L59.9387 57.9345L60.0538 58.1018L60.1661 58.2693L60.2777 58.4362L60.3871 58.6024L60.4944 58.7679L60.6009 58.9328L60.7053 59.0971L60.8076 59.2608L60.9077 59.4239L61.0063 59.5856L61.1021 59.7474L61.1972 59.9072L61.2894 60.067L61.3794 60.2249L61.4673 60.3821L61.5537 60.5379L61.6372 60.6925L61.7186 60.8465L61.7985 60.9991L61.8748 61.1497L61.9497 61.3004L62.0217 61.4484L62.0915 61.5957L62.1584 61.7418L62.2232 61.8859L62.2858 62.0293L62.3455 62.17L62.403 62.3101L62.4577 62.4489L62.5095 62.5865L62.5583 62.7213L62.6044 62.8562L62.6482 62.9891L62.6892 63.1207L62.7265 63.2504L62.761 63.3787L62.7789 63.4517L62.7953 63.5234L62.8103 63.5951L62.8246 63.6676L62.8367 63.7394L62.8475 63.8114L62.8575 63.884L62.8654 63.956L62.8784 64.1002L62.8827 64.1717L62.8857 64.2433L62.8872 64.3149L62.888 64.3858L62.8866 64.4576L62.8846 64.5286L62.8818 64.599L62.8776 64.6695L62.872 64.74L62.8649 64.8105L62.8572 64.8804L62.8373 65.019L62.8267 65.0876L62.814 65.157L62.8012 65.225L62.7855 65.2931L62.7706 65.3605L62.7543 65.4279L62.7365 65.4954L62.6995 65.629L62.6788 65.6952L62.6569 65.7643L62.6133 65.8919L62.5655 66.021L62.5134 66.1489L62.4592 66.2762L62.4021 66.4022L62.3414 66.5263L62.2792 66.649L62.2142 66.7718L62.1456 66.8926L62.0756 67.0135L62.0034 67.1324L61.9283 67.2514L61.8518 67.369L61.7731 67.4846L61.6923 67.6011L61.61 67.7161L61.5256 67.8306L61.4391 67.9444L61.3518 68.0575L61.2623 68.1701L61.1722 68.2819L61.0799 68.3932L60.9868 68.5037L60.8923 68.6144L60.7957 68.7244L60.6011 68.9431L60.5016 69.0518L60.3011 69.2679L60.1981 69.376L59.9933 69.5895L59.785 69.8024L59.5752 70.0139L59.364 70.2255L59.152 70.435L58.9386 70.6446L58.5145 71.0607L58.3039 71.2673L58.0953 71.4731L57.8889 71.6781L57.6852 71.883L57.4851 72.087L57.2879 72.2909L57.1924 72.3923L57.0977 72.493L57.0029 72.5938L56.819 72.7949L56.7299 72.8954L56.6415 72.9951L56.5545 73.0947L56.4703 73.1943L56.3868 73.2931L56.3062 73.3917L56.227 73.4903L56.1492 73.5889L56.0735 73.6866L56.0006 73.7842L55.9291 73.8803L55.8611 73.977L55.7939 74.073L55.7295 74.1688L55.6671 74.2638L55.6083 74.3579L55.551 74.452L55.4964 74.5446L55.4439 74.6377L55.3943 74.7293L55.3475 74.8208L55.3034 74.9108L55.2622 75.0006L55.2231 75.0896L55.1876 75.1778L55.1541 75.2651L55.1228 75.3545L55.1092 75.3941L55.0956 75.4366L55.0827 75.4798L55.0706 75.5222L55.0591 75.5638L55.0483 75.6062L55.0375 75.6471L55.0282 75.6894L55.0188 75.7303L55.0109 75.7711L55.0037 75.8126L54.9906 75.894L54.9847 75.934L54.9796 75.9747L54.9759 76.0153L54.9721 76.0545L54.9691 76.0944L54.9668 76.135L54.9659 76.174L54.9643 76.2139L54.9641 76.2536L54.9653 76.2933L54.9658 76.3323L54.9697 76.4116L54.9731 76.4519L54.9812 76.531L54.9867 76.5705L54.9991 76.6509L55.006 76.6903L55.0151 76.7304L55.0234 76.7712L55.0332 76.8119L55.0437 76.8519L55.0675 76.9346L55.0801 76.9752L55.1184 77.0906L55.1604 77.2094L55.2053 77.3309L55.2532 77.4551L55.3046 77.5827L55.3604 77.713L55.4178 77.846L55.4794 77.9816L55.5447 78.1207L55.6129 78.261L55.684 78.4041L55.7581 78.5499L55.835 78.6969L55.9148 78.8467L55.9982 78.9984L56.0846 79.1529L56.1731 79.3079L56.2653 79.4664L56.3596 79.6254L56.4567 79.7858L56.5569 79.9488L56.6591 80.1139L56.7643 80.2789L56.8723 80.4466L56.9818 80.6156L57.0942 80.786L57.2095 80.9576L57.3269 81.1298L57.4465 81.3041L57.5682 81.479L57.6922 81.6559L57.8175 81.8327L57.9465 82.0115L58.0769 82.1903L58.2087 82.3704L58.3427 82.5511L58.4796 82.7332L58.6179 82.9151L58.7576 83.0984L58.8995 83.2824L59.0428 83.4662L59.1883 83.6507L59.3352 83.8365L59.4835 84.0223L59.6333 84.208L59.7852 84.3943L59.9378 84.5813L60.0918 84.7683L60.248 84.9558L60.4049 85.1426L60.7229 85.5175L61.0467 85.8921L61.2099 86.0793L61.3739 86.2658L61.5386 86.453L61.8722 86.8258L62.0404 87.0121L62.2093 87.1977L62.3789 87.3825L62.5492 87.568L62.7201 87.7513L62.8918 87.9354L63.2379 88.3005L63.4109 88.4816L63.5854 88.6627L63.7591 88.8431L63.9342 89.022L64.1085 89.2002L64.2849 89.3776L64.4599 89.5537L64.6356 89.7291L64.8127 89.9029L64.9882 90.0754L65.1645 90.2472L65.517 90.5879L65.6931 90.7554L66.0446 91.0869L66.3959 91.4127L66.5718 91.5732L66.7462 91.7322L66.9199 91.8892L67.0936 92.0447L67.2678 92.1981L67.4407 92.3502L67.6127 92.5001L67.7847 92.6487L67.9552 92.7944L68.1257 92.9388L68.2954 93.081L68.4643 93.2212L68.631 93.3593L68.7984 93.4952L68.9642 93.6284L69.1293 93.7595L69.2922 93.8886L69.455 94.0148L69.617 94.139L69.7775 94.2603L69.9359 94.3796L70.0934 94.4955L70.2494 94.6099L70.4047 94.7209L70.557 94.8291L70.7092 94.9345L70.8585 95.0372L71.007 95.1378L71.1533 95.2335L71.2981 95.3279L71.4406 95.4188L71.581 95.5063L71.7198 95.591L71.8564 95.6723L71.9914 95.7508L72.1229 95.8259L72.2528 95.8968L72.3797 95.965L72.5044 96.0297L72.6262 96.0917L72.7457 96.1489L72.8616 96.2027L72.9746 96.2538L73.0134 96.2705L73.0522 96.2858L73.0902 96.3005L73.1283 96.3151L73.1663 96.3283L73.2042 96.3401L73.2422 96.352L73.2808 96.363L73.3188 96.3734L73.3567 96.3838L73.3952 96.392L73.4331 96.401L73.4716 96.4078L73.5095 96.4154L73.5487 96.4214L73.5864 96.4276L73.6256 96.4322L73.6648 96.4369L73.7032 96.4409L73.7423 96.4441L73.7821 96.4466L73.8219 96.4491L73.8617 96.4502L73.9021 96.4505L73.9418 96.4502L73.9829 96.4498L74.0233 96.4487L74.0644 96.4469L74.1055 96.4451L74.1466 96.4419L74.189 96.4386L74.2314 96.4339L74.2738 96.4291L74.3162 96.423L74.3593 96.4176L74.3988 96.4115L74.4899 96.3955L74.5787 96.3773L74.6681 96.3571L74.7589 96.3339L74.8503 96.3086L74.9431 96.2803L75.0379 96.2499L75.1334 96.2173L75.2294 96.1811L75.3269 96.1434L75.4249 96.1036L75.5243 96.0609L75.6244 96.016L75.7251 95.969L75.8264 95.9198L75.9291 95.8677L76.0324 95.8149L76.1364 95.7585L76.241 95.7014L76.3455 95.6414L76.4521 95.5792L76.558 95.5163L76.6652 95.4505L76.7731 95.384L76.8809 95.3147L76.9894 95.2446L77.0978 95.1731L77.2076 95.1001L77.3174 95.0257L77.4278 94.9491L77.5375 94.8719L77.6479 94.7939L77.872 94.6329L78.0953 94.4683L78.3206 94.3001L78.5466 94.1297L78.7732 93.9557L79.0011 93.7803L79.229 93.6035L79.6875 93.2468L79.9175 93.0691L80.1482 92.8908L80.3797 92.7145L80.6119 92.5403L80.8442 92.3675L81.0752 92.199L81.1931 92.1143L81.3097 92.0311L81.4264 91.9493L81.5437 91.8682L81.6611 91.7885L81.7786 91.7102L81.8968 91.6326L82.0143 91.5557L82.1325 91.4809L82.2509 91.4075L82.3699 91.3349L82.489 91.265L82.6082 91.1952L82.7281 91.1288L82.8481 91.0625L82.9695 90.9989L83.0896 90.9369L83.2112 90.8775L83.3328 90.8197L83.4552 90.7639L83.5792 90.7108L83.7024 90.66L83.8265 90.6112L83.952 90.5652L84.0776 90.522L84.2041 90.481L84.3313 90.4434L84.4593 90.4093L84.5889 90.3781L84.7178 90.3504L84.8448 90.3263L84.9139 90.3147L84.9796 90.3054L85.0453 90.2962L85.1117 90.2875L85.1781 90.2804L85.2447 90.2746L85.3112 90.2702L85.3785 90.2665L85.4451 90.2636L85.5124 90.2613L85.5797 90.2605L85.6471 90.261L85.7146 90.263L85.7828 90.2657L85.8503 90.2705L85.9178 90.2753L85.9861 90.2823L86.0538 90.2899L86.1214 90.299L86.1898 90.3087L86.2576 90.3207L86.3254 90.334L86.3932 90.3487L86.4611 90.3635L86.5283 90.3804L86.5955 90.3987L86.6628 90.4184L86.7302 90.4396L86.7968 90.4615L86.8628 90.4855L86.9295 90.5102L86.9956 90.5371L87.061 90.5648L87.1265 90.5938L87.2417 90.6483L87.3584 90.7056L87.4751 90.7658L87.592 90.8301L87.7104 90.8959L87.8289 90.9659L87.9489 91.0386L88.0697 91.1135L88.1913 91.1919L88.313 91.2731L88.4354 91.3564L88.5594 91.4424L88.6842 91.532L88.8097 91.6237L88.9361 91.7175L89.0632 91.8148L89.1911 91.9141L89.3198 92.0156L89.45 92.1199L89.5796 92.2263L89.7107 92.3355L89.8425 92.4467L89.9737 92.5602L90.1071 92.6756L90.2406 92.7939L90.3741 92.9136L90.5077 93.0362L90.6427 93.1601L90.7779 93.2868L90.9131 93.415L91.0491 93.5452L91.1851 93.6769L91.3212 93.8114L91.4573 93.9473L91.5935 94.0847L91.7298 94.2234L91.8668 94.3643L92.0038 94.5065L92.1402 94.651L92.2767 94.7968L92.4125 94.9434L92.549 95.0921L92.6842 95.2422L92.8201 95.3931L92.9553 95.5461L93.0899 95.6998L93.2245 95.8549L93.3592 96.0115L93.4917 96.1689L93.6243 96.3277L93.757 96.4879L93.8882 96.6482L94.0195 96.8098L94.1501 96.9723L94.2785 97.1355L94.4071 97.3001L94.5349 97.4655L94.6613 97.631L94.7871 97.7972L94.9114 97.9648L95.0351 98.1318L95.1573 98.3003L95.2789 98.4695L95.3976 98.6388L95.5171 98.8089L95.6337 98.979L95.7497 99.1499L95.8642 99.3208L95.9773 99.4918L96.0884 99.6636L96.198 99.8355L96.3061 100.007L96.4122 100.179L96.5168 100.352L96.62 100.523L96.7211 100.695L96.8194 100.868L96.9169 101.039L97.0124 101.212L97.1056 101.384L97.1968 101.555L97.2858 101.727L97.372 101.898L97.4567 102.069L97.5386 102.24L97.6191 102.411L97.6967 102.58L97.7715 102.75L97.8441 102.919L97.9139 103.087L97.9815 103.256L98.0456 103.424L98.1075 103.592L98.1673 103.759L98.2236 103.925L98.2762 104.091L98.3267 104.256L98.3744 104.422L98.4178 104.586L98.459 104.75L98.4967 104.913L98.5308 105.075L98.5606 105.235L98.5753 105.319L98.5891 105.399L98.6008 105.48L98.6118 105.56L98.6221 105.64L98.6317 105.721L98.6398 105.8L98.6473 105.88L98.6593 106.039L98.6632 106.119L98.6663 106.197L98.6688 106.277L98.6698 106.356L98.6694 106.434L98.6683 106.513L98.6665 106.591L98.6632 106.669L98.6578 106.747L98.6517 106.825L98.6449 106.903L98.6367 106.981L98.6159 107.135L98.6034 107.211L98.5895 107.288L98.5748 107.364L98.5587 107.44L98.5405 107.515L98.5208 107.591L98.4997 107.666L98.4779 107.741L98.454 107.815L98.4293 107.888L98.4025 107.961L98.3742 108.034L98.3439 108.107L98.3127 108.178L98.2795 108.249L98.2448 108.32L98.2086 108.39L98.1703 108.459L98.1306 108.527L98.0894 108.595L98.0468 108.661L98.0028 108.728L97.9565 108.792L97.9089 108.857L97.8597 108.92L97.8105 108.98L97.7619 109.037L97.7154 109.092L97.666 109.146L97.5658 109.254L97.5115 109.31L97.4062 109.415L97.2953 109.521L97.1794 109.627L97.0607 109.733L96.937 109.839L96.8083 109.944L96.6768 110.049L96.5417 110.153L96.401 110.258L96.2581 110.363L96.1102 110.468L95.9588 110.572L95.8032 110.677L95.644 110.781L95.4812 110.887L95.315 110.991L95.1444 111.096L94.9703 111.2L94.7934 111.304L94.6122 111.409L94.4274 111.513L94.2398 111.617L94.0487 111.721L93.8533 111.824L93.6557 111.927L93.4546 112.03L93.25 112.133L93.0432 112.236L92.8321 112.338L92.619 112.44L92.4029 112.541L92.1833 112.642L91.9616 112.743L91.7362 112.843L91.5088 112.943L91.2785 113.042L91.0453 113.139L90.81 113.238L90.5718 113.335L90.3322 113.431L90.0898 113.526L89.8444 113.621L89.5969 113.715L89.3473 113.808L89.0962 113.9L88.843 113.992L88.5868 114.082L88.33 114.171L88.0703 114.259L87.8098 114.347L87.5465 114.433L87.2817 114.518L87.0154 114.601L86.7478 114.685L86.4786 114.765L86.2073 114.846L85.9359 114.924L85.6616 115.002L85.3874 115.078L85.1109 115.152L84.8344 115.224L84.5557 115.296L84.2769 115.365L83.9967 115.434L83.7158 115.5L83.434 115.565L83.1508 115.629L82.8676 115.689L82.5836 115.749L82.2988 115.807L82.0139 115.863L81.7283 115.917L81.442 115.97L81.1555 116.019L80.869 116.067L80.5824 116.113L80.2944 116.157L80.0077 116.198L79.7202 116.238L79.4334 116.275L79.1457 116.309L78.8587 116.342L78.5724 116.372L78.2846 116.4L77.9988 116.425L77.7129 116.448L77.4277 116.468L77.1423 116.486L76.8577 116.501L76.5729 116.514L76.2901 116.523L76.0074 116.531L75.7259 116.535L75.445 116.536L75.1641 116.534L74.8852 116.53L74.6069 116.523L74.3313 116.512L74.1921 116.506L74.0535 116.498L73.9164 116.491L73.7792 116.482L73.6413 116.473L73.5055 116.462L73.369 116.451L73.2331 116.439L73.0973 116.426L72.9614 116.413L72.8268 116.399L72.6923 116.384L72.5584 116.367L72.4246 116.35L72.2907 116.332L72.1575 116.315L72.0249 116.295L71.8923 116.274L71.7605 116.253L71.6292 116.231L71.498 116.208L71.3675 116.183L71.2369 116.159L71.107 116.133L70.9785 116.106L70.8492 116.079L70.7207 116.05L70.5928 116.021L70.4655 115.99L70.3383 115.958L70.2125 115.926L70.0866 115.893L69.9607 115.859L69.8362 115.823L69.7123 115.787L69.5878 115.75L69.4646 115.711L69.342 115.672L69.2202 115.632L69.099 115.59L68.9778 115.547L68.8573 115.504L68.7382 115.46L68.619 115.414L68.5006 115.368L68.3827 115.319L68.2656 115.271L68.1491 115.221L68.0334 115.17L67.9175 115.117L67.8038 115.064L67.69 115.01L67.577 114.954L67.4653 114.897L67.342 114.834L67.2187 114.769L67.0947 114.704L66.9705 114.635L66.8464 114.567L66.7208 114.497L66.5959 114.426L66.4688 114.353L66.3431 114.279L66.2159 114.204L66.0887 114.127L65.9607 114.05L65.8327 113.971L65.704 113.89L65.5752 113.809L65.4457 113.726L65.3154 113.643L65.1843 113.557L64.9229 113.383L64.6592 113.205L64.3939 113.022L64.1277 112.834L63.8593 112.642L63.5893 112.445L63.3178 112.244L63.0455 112.038L62.7708 111.829L62.4961 111.615L62.2191 111.397L61.9419 111.174L61.6625 110.948L61.3823 110.719L61.102 110.485L60.8194 110.247L60.536 110.005L60.2524 109.76L59.9681 109.511L59.6815 109.259L59.3955 109.004L59.1087 108.745L58.8204 108.483L58.532 108.217L58.2428 107.948L57.9534 107.676L57.6633 107.401L57.3738 107.123L57.0828 106.842L56.7924 106.559L56.5012 106.272L56.2099 105.983L55.9179 105.691L55.6272 105.397L55.3356 105.1L55.0441 104.801L54.7531 104.499L54.4614 104.196L54.171 103.889L53.8806 103.581L53.59 103.271L53.3002 102.959L53.0109 102.644L52.7217 102.327L52.4331 102.01L52.1458 101.69L51.8585 101.368L51.5725 101.045L51.2866 100.721L51.0019 100.395L50.718 100.068L50.4354 99.7387L50.1536 99.4098L49.873 99.078L49.5932 98.7455L49.3147 98.4129L49.0377 98.0788L48.762 97.7432L48.487 97.4069L48.2141 97.0698L47.9426 96.7327L47.6718 96.3947L47.4038 96.0553L47.1365 95.7165L46.8713 95.3769L46.6083 95.0365L46.3466 94.6961L46.0871 94.3563L45.829 94.015L45.573 93.6743L45.3192 93.3342L45.0674 92.9933L44.8185 92.6523L44.5704 92.312L44.3257 91.9722L44.0826 91.6324L43.8429 91.2931L43.6047 90.9537L43.3694 90.6157L43.1369 90.2775L42.9065 89.9399L42.6791 89.6036L42.4537 89.268L42.232 88.9329L42.0131 88.599L41.7963 88.2658L41.5832 87.9346L41.3729 87.6032L41.1655 87.2746L40.961 86.9458L40.7601 86.619L40.5627 86.2928L40.3682 85.9692L40.1773 85.6462L39.9894 85.3259L39.805 85.0062L39.6242 84.6885L39.4477 84.3719L39.2741 84.0581L39.1041 83.7463L38.9385 83.4356L38.7764 83.127L38.618 82.8217L38.4638 82.5177L38.3133 82.2156L38.1671 81.9162L38.0253 81.618L37.887 81.3232L37.7524 81.0304L37.6235 80.7401L37.4976 80.4526L37.3774 80.1691L37.3177 80.0255L37.2608 79.8847L37.204 79.7438L37.1486 79.6043L37.0939 79.4655L37.0414 79.3273L36.9896 79.1898L36.9385 79.053L36.8889 78.9161L36.8407 78.7805L36.7933 78.6456L36.7466 78.5114L36.702 78.3779L36.6581 78.2449L36.6211 78.1266L36.5834 78.0077L36.5478 77.8879L36.5121 77.7681L36.4779 77.6468L36.4444 77.5262L36.4122 77.4042L36.3808 77.2828L36.3493 77.16L36.3207 77.0371L36.2913 76.9135L36.2634 76.7898L36.2361 76.6654L36.2103 76.5409L36.1844 76.4164L36.1599 76.2905L36.1362 76.1652L36.1138 76.0384L36.0915 75.9117L36.0705 75.7849L36.0502 75.6573L36.0307 75.5304L36.0125 75.4021L35.9944 75.2737L35.9776 75.1453L35.9616 75.0161L35.9462 74.8862L35.9316 74.757L35.9183 74.6263L35.905 74.4956L35.8925 74.3655L35.8813 74.234L35.8709 74.1032L35.8604 73.9709L35.8521 73.8393L35.8436 73.7048L35.8298 73.4415L35.8187 73.1751L35.8097 72.9079L35.8049 72.6392L35.803 72.3703L35.8032 72.1006L35.8068 71.83L35.8133 71.5579L35.8226 71.2857L35.834 71.0127L35.8489 70.7388L35.8653 70.4649L35.8858 70.1893L35.9085 69.9144L35.934 69.6393L35.9617 69.3634L35.9921 69.086L36.0254 68.8099L36.0608 68.5329L36.0983 68.2552L36.1387 67.9788L36.1818 67.7008L36.2264 67.4228L36.2739 67.146L36.3235 66.8685L36.3759 66.5908L36.4304 66.3137L36.4871 66.0373L36.5459 65.76L36.6069 65.4834L36.6699 65.2074L36.7359 64.9312L36.8033 64.6564L36.8728 64.3808L36.9444 64.1073L37.0182 63.8329L37.0935 63.5599L37.1715 63.2868L37.2511 63.015L37.3321 62.7446L37.4159 62.474L37.5012 62.2048L37.5886 61.9363L37.6775 61.669L37.7686 61.4024L37.8611 61.1372L37.9551 60.8733L38.0512 60.61L38.1495 60.3487L38.2485 60.0882L38.3497 59.8282L38.4524 59.571L38.5565 59.3138L38.6628 59.0585L38.7699 58.8054L38.8791 58.5529L38.9898 58.3032L39.102 58.0548L39.2149 57.8071L39.3294 57.5621L39.446 57.3192L39.564 57.0777L39.6836 56.8375L39.8032 56.6002L39.925 56.3634L40.0475 56.1302L40.1723 55.899L40.2979 55.6699L40.4249 55.4421L40.552 55.2172L40.6813 54.9943L40.8121 54.7742L40.9436 54.5562L41.076 54.3403L41.2098 54.1272L41.3452 53.9168L41.4806 53.7093L41.6175 53.5031L41.7552 53.3004L41.8944 53.1005L42.0345 52.9041L42.1753 52.7098L42.3176 52.5183L42.46 52.3296L42.6039 52.1437L42.7487 51.9613L42.8949 51.7817L43.0412 51.6049L43.1891 51.4323L43.337 51.2625L43.4865 51.0955L43.6368 50.932L43.7879 50.7721L43.9398 50.6156L44.0925 50.4627L44.2454 50.3126L44.3991 50.1674L44.4784 50.095L44.5563 50.0242L44.6336 49.954L44.7124 49.8853L44.7904 49.8172L44.8692 49.7499L44.948 49.6839L45.0276 49.6187L45.1064 49.5542L45.1861 49.4917L45.2657 49.4293L45.3454 49.3683L45.4258 49.308L45.5063 49.2491L45.5867 49.1902L45.6679 49.1333L45.7492 49.0765L45.8305 49.0225L45.9125 48.9678L45.9939 48.9153L46.076 48.8634L46.1588 48.8122L46.2402 48.7624L46.3238 48.7133L46.4068 48.6664L46.4925 48.6179L46.5595 48.5822L46.6308 48.5465L46.7028 48.5128L46.7749 48.4805L46.8484 48.451L46.9213 48.4222L46.9957 48.3962L47.0701 48.3716L47.1453 48.3491L47.2206 48.3281L47.2959 48.3084L47.3712 48.2916L47.4481 48.2761L47.525 48.2621L47.6012 48.2502L47.6775 48.2397L47.7546 48.2314L47.8317 48.2244L47.9088 48.2189L47.986 48.2148L48.0632 48.212L48.1398 48.2115L48.2171 48.2116ZM48.1032 50.2123L48.0656 50.2133L48.0295 50.2156L47.9934 50.2179L47.958 50.2209L47.9241 50.2252L47.8902 50.2295L47.8577 50.2338L47.826 50.2402L47.7943 50.2466L47.7633 50.2536L47.733 50.2613L47.7021 50.2698L47.6733 50.2789L47.6445 50.288L47.6157 50.2984L47.5884 50.3089L47.5603 50.3201L47.533 50.3319L47.5065 50.3444L47.48 50.3584L47.4506 50.3739L47.3907 50.4077L47.3273 50.4439L47.2639 50.4815L47.2005 50.5191L47.1365 50.5588L47.0717 50.5993L47.0085 50.6411L46.9438 50.683L46.8792 50.7277L46.8147 50.7724L46.7494 50.8179L46.6842 50.8648L46.6197 50.9124L46.5545 50.9621L46.4894 51.0118L46.4229 51.063L46.3578 51.1155L46.2921 51.1688L46.2264 51.2221L46.16 51.2776L46.0943 51.3337L46.0287 51.3912L45.9624 51.4495L45.8955 51.5086L45.8299 51.5689L45.7651 51.6286L45.6307 51.7559L45.4985 51.8852L45.3658 52.0181L45.2324 52.1546L45.1005 52.2953L44.9681 52.4395L44.8351 52.5873L44.7035 52.7379L44.5715 52.8935L44.4401 53.0512L44.309 53.2131L44.1779 53.3779L44.0476 53.5461L43.9174 53.7172L43.7881 53.8919L43.6595 54.07L43.5311 54.251L43.4027 54.4348L43.2758 54.6214L43.149 54.8108L43.0238 55.003L42.8986 55.198L42.7749 55.3958L42.6513 55.5964L42.5292 55.7998L42.4072 56.0046L42.2867 56.2136L42.1669 56.4233L42.048 56.6365L41.9312 56.8517L41.8138 57.0691L41.6986 57.2885L41.5842 57.51L41.4705 57.7337L41.3583 57.96L41.2476 58.1878L41.1377 58.4176L41.0293 58.6488L40.9223 58.8827L40.8161 59.1174L40.712 59.354L40.6088 59.5928L40.507 59.8329L40.4066 60.0744L40.3078 60.3172L40.2103 60.5614L40.1151 60.8076L40.0206 61.0545L39.9276 61.3028L39.8367 61.553L39.7473 61.8032L39.6593 62.0548L39.5728 62.3077L39.4885 62.5613L39.4056 62.8162L39.3248 63.0717L39.2462 63.3278L39.1683 63.5846L39.0933 63.8427L39.0191 64.1015L38.9476 64.3601L38.8776 64.6187L38.8098 64.8793L38.7441 65.1391L38.6798 65.4003L38.6184 65.6613L38.5584 65.9223L38.5005 66.1839L38.4447 66.4447L38.3919 66.7068L38.3397 66.9681L38.291 67.23L38.2438 67.4919L38.1994 67.7522L38.1564 68.0138L38.117 68.2746L38.0789 68.5353L38.043 68.7952L38.0099 69.055L37.9789 69.314L37.9508 69.5729L37.9247 69.8309L37.9008 70.0882L37.8803 70.3446L37.8613 70.6009L37.8451 70.8557L37.8317 71.1089L37.8204 71.3628L37.8126 71.6144L37.8062 71.8659L37.8032 72.1151L37.8032 72.3642L37.8044 72.6119L37.8099 72.8579L37.8168 73.1024L37.8272 73.3461L37.8404 73.5896L37.8477 73.7093L37.865 73.9484L37.8743 74.0672L37.8844 74.1867L37.9074 74.4227L37.9195 74.54L37.9466 74.7744L37.9765 75.0058L37.9921 75.1208L38.0091 75.2358L38.0446 75.4641L38.0637 75.5768L38.0835 75.6902L38.1033 75.8022L38.1245 75.9141L38.1683 76.1364L38.1915 76.2461L38.2155 76.3565L38.2409 76.4654L38.2655 76.5736L38.2916 76.6817L38.319 76.7898L38.3465 76.8964L38.3746 77.0024L38.4041 77.1082L38.4343 77.2133L38.4638 77.3178L38.4954 77.4214L38.5284 77.525L38.5606 77.6279L38.6005 77.7475L38.6404 77.8685L38.6832 77.9908L38.7254 78.1138L38.8153 78.3625L38.8625 78.4889L38.9104 78.6159L38.9591 78.7437L39.0099 78.872L39.0607 79.0018L39.1137 79.1321L39.1674 79.2632L39.2219 79.3949L39.3359 79.6631L39.4535 79.9333L39.5747 80.2068L39.7017 80.4829L39.8324 80.7625L39.9681 81.0453L40.1068 81.3309L40.2505 81.6183L40.3978 81.9092L40.5495 82.2027L40.7055 82.4988L40.8651 82.7969L41.0283 83.097L41.1952 83.4005L41.3664 83.7052L41.5411 84.0119L41.7188 84.3212L41.9016 84.6325L42.0865 84.9458L42.2749 85.2597L42.4678 85.5762L42.662 85.8941L42.8613 86.2139L43.0635 86.535L43.2678 86.8566L43.4765 87.181L43.6873 87.5059L43.9017 87.8314L44.1182 88.159L44.3384 88.487L44.5607 88.8157L44.7858 89.1457L45.0138 89.477L45.2447 89.8082L45.477 90.1407L45.7136 90.473L45.9509 90.806L46.1911 91.1403L46.4334 91.4738L46.6792 91.8079L46.9258 92.1426L47.1752 92.4772L47.426 92.8117L47.6797 93.1461L47.9348 93.4805L48.1913 93.8148L48.4506 94.1489L48.7106 94.4823L48.9728 94.8164L49.2371 95.1496L49.5027 95.4814L49.7697 95.813L50.0382 96.1447L50.3081 96.4748L50.5793 96.8049L50.852 97.1335L51.126 97.4606L51.4007 97.787L51.6768 98.1133L51.9535 98.4375L52.2317 98.7602L52.5112 99.0828L52.7907 99.4026L53.0715 99.7223L53.3523 100.039L53.6352 100.355L53.9173 100.669L54.2008 100.982L54.4849 101.292L54.769 101.601L55.053 101.907L55.3384 102.212L55.6237 102.515L55.9089 102.815L56.1941 103.113L56.4799 103.408L56.7656 103.702L57.0513 103.993L57.3361 104.281L57.6216 104.566L57.9063 104.85L58.1916 105.13L58.4762 105.407L58.7599 105.681L59.0435 105.953L59.3264 106.222L59.6091 106.487L59.8903 106.749L60.1714 107.007L60.4517 107.263L60.7312 107.515L61.0092 107.764L61.287 108.009L61.5633 108.25L61.8388 108.488L62.1128 108.721L62.3859 108.951L62.6575 109.177L62.9268 109.399L63.196 109.617L63.463 109.83L63.7291 110.04L63.9929 110.245L64.2552 110.445L64.5152 110.643L64.7737 110.834L65.0306 111.022L65.2852 111.204L65.5376 111.382L65.7877 111.554L66.0369 111.722L66.2831 111.886L66.404 111.965L66.5256 112.043L66.6458 112.12L66.7666 112.197L66.8859 112.27L67.0052 112.344L67.1231 112.416L67.2402 112.486L67.3573 112.556L67.4728 112.623L67.5891 112.69L67.7032 112.754L67.8172 112.819L67.9305 112.881L68.0424 112.942L68.1542 113.002L68.2652 113.059L68.3741 113.116L68.4685 113.164L68.5628 113.21L68.6571 113.255L68.7529 113.3L68.8493 113.344L68.9471 113.386L69.0449 113.429L69.144 113.47L69.2439 113.51L69.3437 113.55L69.4449 113.589L69.5475 113.627L69.6494 113.663L69.7527 113.7L69.8566 113.736L69.962 113.77L70.068 113.804L70.174 113.837L70.2814 113.87L70.3895 113.901L70.4976 113.932L70.607 113.962L70.7164 113.991L70.8273 114.019L70.9388 114.047L71.0503 114.073L71.1632 114.1L71.276 114.124L71.3903 114.149L71.5045 114.172L71.6194 114.195L71.7357 114.218L71.8513 114.239L71.9683 114.26L72.0859 114.279L72.2042 114.298L72.3219 114.317L72.4416 114.334L72.5613 114.351L72.6816 114.367L72.802 114.382L72.923 114.396L73.0455 114.411L73.1671 114.423L73.2902 114.436L73.414 114.447L73.5371 114.458L73.6615 114.469L73.7867 114.478L73.9118 114.486L74.0369 114.495L74.1634 114.502L74.2891 114.509L74.4148 114.514L74.6719 114.524L74.9275 114.531L75.1858 114.535L75.4455 114.536L75.7058 114.535L75.9681 114.531L76.2311 114.524L76.4947 114.515L76.761 114.504L77.0266 114.49L77.2942 114.472L77.5625 114.454L77.8313 114.432L78.1008 114.408L78.371 114.382L78.6418 114.354L78.9125 114.323L79.1846 114.29L79.4559 114.255L79.7286 114.218L80.0012 114.179L80.2737 114.137L80.5461 114.094L80.8185 114.048L81.0908 114L81.3638 113.95L81.636 113.899L81.9082 113.845L82.1796 113.79L82.4509 113.733L82.7208 113.675L82.9913 113.615L83.261 113.553L83.5293 113.489L83.7976 113.424L84.065 113.357L84.331 113.288L84.5963 113.219L84.8608 113.148L85.1239 113.075L85.3855 113.001L85.647 112.926L85.9056 112.849L86.1643 112.771L86.4207 112.692L86.6757 112.612L86.9293 112.531L87.1814 112.448L87.4313 112.364L87.6798 112.28L87.9261 112.194L88.1703 112.108L88.413 112.021L88.6536 111.933L88.8913 111.843L89.1283 111.754L89.3617 111.663L89.5937 111.573L89.8221 111.48L90.049 111.388L90.2732 111.296L90.4951 111.201L90.7135 111.108L90.9291 111.013L91.1425 110.918L91.3523 110.823L91.5594 110.728L91.7635 110.632L91.9648 110.537L92.1633 110.44L92.3575 110.343L92.5482 110.248L92.7367 110.151L92.921 110.055L93.1017 109.958L93.2789 109.863L93.4519 109.767L93.6213 109.671L93.7872 109.575L93.9488 109.48L94.1069 109.386L94.26 109.291L94.4096 109.197L94.5543 109.104L94.6954 109.012L94.8309 108.92L94.9628 108.829L95.0899 108.739L95.2119 108.65L95.3298 108.563L95.442 108.475L95.55 108.39L95.6524 108.306L95.7498 108.223L95.841 108.142L95.9272 108.062L96.0085 107.985L96.0855 107.908L96.1185 107.873L96.1522 107.837L96.1851 107.802L96.216 107.767L96.2461 107.733L96.2728 107.701L96.2954 107.674L96.3165 107.647L96.3362 107.62L96.356 107.593L96.3749 107.563L96.3925 107.536L96.4108 107.507L96.4276 107.477L96.4444 107.447L96.4597 107.416L96.4758 107.386L96.4904 107.354L96.5043 107.321L96.5182 107.289L96.5313 107.254L96.5438 107.22L96.5561 107.185L96.5671 107.15L96.578 107.113L96.5882 107.076L96.5984 107.037L96.6071 106.998L96.6165 106.959L96.6245 106.918L96.6317 106.876L96.6382 106.834L96.6447 106.792L96.6504 106.748L96.6547 106.704L96.659 106.658L96.6625 106.612L96.6653 106.565L96.6674 106.517L96.6694 106.468L96.67 106.419L96.6692 106.369L96.669 106.318L96.6681 106.266L96.6651 106.213L96.6627 106.16L96.6589 106.106L96.6551 106.051L96.6491 105.996L96.6439 105.94L96.6371 105.883L96.6296 105.825L96.6215 105.768L96.6126 105.709L96.6029 105.649L96.5933 105.592L96.5696 105.467L96.5431 105.343L96.5143 105.216L96.4819 105.087L96.4467 104.956L96.4085 104.823L96.3681 104.688L96.3235 104.552L96.2773 104.412L96.2269 104.272L96.1749 104.13L96.1194 103.986L96.0617 103.842L96.0005 103.696L95.9377 103.548L95.8721 103.399L95.8036 103.249L95.733 103.098L95.6594 102.946L95.5838 102.793L95.506 102.64L95.426 102.484L95.3431 102.329L95.2581 102.173L95.1717 102.016L95.0824 101.858L94.9924 101.701L94.8988 101.542L94.8038 101.384L94.7074 101.224L94.6088 101.065L94.5081 100.906L94.406 100.746L94.3032 100.586L94.1982 100.427L94.0911 100.267L93.9826 100.107L93.8727 99.9475L93.7614 99.7892L93.6486 99.6295L93.5351 99.4706L93.4196 99.3125L93.304 99.1543L93.1864 98.997L93.0687 98.8397L92.9489 98.6832L92.8285 98.5274L92.7066 98.3717L92.5848 98.2174L92.4616 98.0632L92.3377 97.9111L92.2138 97.759L92.0878 97.6077L91.9626 97.4571L91.8367 97.3087L91.7094 97.1603L91.5821 97.0134L91.4549 96.8678L91.3263 96.7238L91.1984 96.5804L91.0699 96.4391L90.9421 96.2986L90.813 96.1595L90.6846 96.0225L90.5555 95.8863L90.4272 95.7522L90.2983 95.6202L90.1701 95.4889L90.042 95.3604L89.9146 95.2326L89.7866 95.107L89.6601 94.9841L89.5336 94.8627L89.4072 94.7427L89.2815 94.6261L89.1566 94.5103L89.0326 94.398L88.9092 94.2863L88.7867 94.1782L88.665 94.0722L88.5447 93.9689L88.4253 93.8677L88.3066 93.7686L88.1894 93.6723L88.073 93.5795L87.9581 93.4881L87.8448 93.4008L87.7329 93.3149L87.6225 93.2332L87.5136 93.1529L87.4063 93.0767L87.3012 93.004L87.1983 92.9333L87.0962 92.8662L86.9977 92.8024L86.9008 92.7414L86.8054 92.6846L86.7136 92.6297L86.6241 92.5797L86.5375 92.5325L86.4539 92.4893L86.3732 92.4489L86.2954 92.4126L86.2653 92.3997L86.2351 92.3869L86.2042 92.3747L86.174 92.3633L86.1446 92.3525L86.1145 92.3425L86.0837 92.3332L86.0537 92.3246L86.0236 92.316L85.9929 92.3081L85.9629 92.3009L85.9322 92.2945L85.9008 92.2888L85.8701 92.2837L85.8395 92.2787L85.8074 92.2752L85.7761 92.2709L85.7448 92.268L85.7121 92.2652L85.6794 92.2638L85.6467 92.2624L85.614 92.261L85.58 92.2611L85.5474 92.2611L85.5126 92.2619L85.4786 92.2634L85.4439 92.2657L85.4086 92.2687L85.3732 92.2716L85.3371 92.2754L85.3004 92.2798L85.2644 92.285L85.2269 92.2902L85.1931 92.2959L85.1127 92.3108L85.0351 92.327L84.9556 92.3469L84.874 92.3689L84.7918 92.3932L84.7082 92.4203L84.6226 92.4496L84.5356 92.4818L84.4473 92.5155L84.3569 92.5529L84.2666 92.5917L84.1743 92.6341L84.0813 92.6786L83.987 92.7247L83.8913 92.7736L83.795 92.8247L83.6967 92.878L83.5991 92.9334L83.4994 92.991L83.3984 93.0502L83.2981 93.1114L83.1958 93.1748L83.0929 93.2404L82.99 93.3074L82.8857 93.3759L82.78 93.4458L82.6752 93.5179L82.5689 93.5914L82.462 93.6657L82.3544 93.7421L82.2475 93.8192L82.029 93.9786L81.8099 94.1416L81.5888 94.3082L81.365 94.4792L81.1398 94.6517L80.9133 94.8271L80.4554 95.183L80.2241 95.3621L79.992 95.542L79.7585 95.7205L79.5228 95.8984L79.2864 96.0756L79.0485 96.2501L78.8105 96.4217L78.6891 96.5072L78.5689 96.5913L78.4481 96.6747L78.3265 96.7575L78.2049 96.8388L78.0826 96.9194L77.9602 96.9986L77.8377 97.0764L77.7146 97.1536L77.5914 97.2293L77.4674 97.3029L77.3427 97.3758L77.2179 97.4459L77.0924 97.5153L76.966 97.5826L76.8397 97.6485L76.7126 97.7124L76.5854 97.7748L76.4567 97.8344L76.328 97.8926L76.1978 97.948L76.0682 98.0013L75.9371 98.0518L75.8053 98.1002L75.6727 98.1465L75.5392 98.1893L75.4057 98.2293L75.2714 98.2672L75.1355 98.3008L74.9989 98.3324L74.8621 98.3598L74.7274 98.3835L74.6554 98.3952L74.5854 98.4046L74.5155 98.4141L74.4455 98.4222L74.3762 98.4295L74.3055 98.4355L74.2354 98.4407L74.1653 98.4445L74.0945 98.4476L74.0236 98.4493L73.9527 98.451L73.8817 98.4499L73.8108 98.4488L73.7391 98.447L73.668 98.4431L73.5962 98.4384L73.5251 98.433L73.4533 98.4256L73.3821 98.4174L73.3102 98.4085L73.2389 98.3974L73.1669 98.3857L73.0948 98.3726L73.0235 98.3587L72.9527 98.3427L72.8813 98.3259L72.8098 98.3078L72.7383 98.2883L72.6674 98.268L72.5965 98.2463L72.5262 98.2224L72.4553 98.1979L72.385 98.1726L72.3146 98.1445L72.2442 98.1164L72.1752 98.0868L72.032 98.0228L71.8867 97.9554L71.7412 97.8852L71.5942 97.8108L71.4464 97.7343L71.2964 97.6544L71.1463 97.5716L70.9946 97.4846L70.8408 97.3956L70.6868 97.3037L70.5314 97.2091L70.3744 97.1103L70.216 97.0102L70.0567 96.9065L69.8967 96.8007L69.7351 96.6922L69.5727 96.5801L69.4082 96.466L69.2436 96.3491L69.0767 96.2302L68.9098 96.1084L68.7421 95.9845L68.5729 95.8578L68.4029 95.7291L68.2329 95.5975L68.0606 95.4639L67.8876 95.3282L67.7145 95.1896L67.5399 95.0497L67.3652 94.907L67.1898 94.7636L67.0136 94.6167L66.8366 94.4676L66.6589 94.3179L66.4811 94.1654L66.3026 94.0122L66.1232 93.8555L65.9446 93.698L65.7637 93.5385L65.5842 93.3775L65.404 93.2145L65.2223 93.05L65.0419 92.8841L64.8601 92.7169L64.6789 92.5475L64.497 92.3774L64.3158 92.2051L64.1345 92.0329L63.9525 91.8585L63.7711 91.682L63.5897 91.5055L63.4083 91.3276L63.2268 91.1483L63.0461 90.9682L62.8652 90.7867L62.6851 90.6044L62.5049 90.4208L62.3254 90.2378L62.1459 90.052L61.9678 89.8661L61.7889 89.6796L61.6107 89.4923L61.4347 89.3042L61.2579 89.1154L61.0818 88.9259L60.9064 88.7371L60.7324 88.5468L60.559 88.3557L60.3857 88.1646L60.2138 87.9721L60.0433 87.7809L59.8727 87.5883L59.7036 87.3957L59.5359 87.203L59.3697 87.0102L59.2034 86.8174L59.0392 86.6238L58.8757 86.4309L58.7137 86.2379L58.5531 86.0449L58.3939 85.8518L58.2354 85.6594L58.0791 85.4661L57.9242 85.2743L57.7699 85.0817L57.6179 84.8897L57.4679 84.6983L57.3187 84.5076L57.1717 84.3161L57.026 84.1259L56.8825 83.9364L56.7405 83.7468L56.5999 83.5586L56.4621 83.3702L56.3258 83.1832L56.1916 82.9968L56.0596 82.811L55.929 82.6252L55.8006 82.4413L55.675 82.2574L55.5516 82.0755L55.4297 81.8935L55.3099 81.7136L55.1929 81.5335L55.0782 81.3555L54.9663 81.1774L54.8558 81.0006L54.7483 80.8265L54.6428 80.6516L54.541 80.4786L54.4406 80.3071L54.3431 80.1368L54.2485 79.9678L54.1561 79.7995L54.0672 79.6331L53.9805 79.4673L53.8974 79.3035L53.8164 79.1403L53.7384 78.9798L53.6639 78.8198L53.5916 78.6605L53.5229 78.5031L53.4564 78.3478L53.3942 78.1937L53.3348 78.0395L53.2783 77.888L53.2254 77.7371L53.1761 77.5881L53.1532 77.5146L53.1311 77.4403L53.111 77.3667L53.0917 77.2923L53.0745 77.2185L53.058 77.144L53.043 77.0695L53.0286 76.9956L53.0171 76.9216L53.0056 76.8476L52.9962 76.7728L52.9882 76.6993L52.981 76.6251L52.9744 76.5516L52.9707 76.478L52.967 76.4043L52.9647 76.3306L52.9646 76.2575L52.9645 76.1844L52.9665 76.1119L52.9692 76.0387L52.974 75.9661L52.9789 75.8935L52.9852 75.8223L52.9929 75.7495L53.0013 75.6789L53.0111 75.6068L53.0224 75.536L53.0337 75.4653L53.0471 75.3951L53.0606 75.325L53.0754 75.2548L53.0917 75.1859L53.1087 75.1163L53.1264 75.0474L53.1456 74.9785L53.1648 74.9109L53.1861 74.8425L53.2074 74.7756L53.2308 74.705L53.2771 74.5745L53.3276 74.4424L53.381 74.3116L53.438 74.1813L53.4971 74.0531L53.5599 73.9254L53.624 73.7991L53.6911 73.6741L53.7617 73.5496L53.8338 73.4265L53.9074 73.3047L53.9845 73.1835L54.0623 73.0629L54.143 72.9437L54.2259 72.8251L54.3095 72.7071L54.396 72.5904L54.4832 72.4745L54.5718 72.3584L54.6633 72.2437L54.7548 72.1289L54.8485 72.0162L54.9428 71.9027L55.0394 71.7899L55.1359 71.6784L55.2339 71.5669L55.334 71.4561L55.4342 71.3452L55.535 71.235L55.6373 71.1261L55.7397 71.0173L55.8441 70.9076L56.0516 70.6927L56.262 70.4775L56.4746 70.2645L56.6873 70.0528L56.9006 69.8418L57.114 69.6323L57.5374 69.2168L57.7474 69.011L57.9552 68.8059L58.1589 68.6025L58.3597 68.3991L58.5571 68.1981L58.7509 67.9965L58.8443 67.8972L58.9369 67.7973L59.0282 67.6989L59.1188 67.5998L59.2072 67.5015L59.2943 67.4033L59.3792 67.3059L59.4627 67.2085L59.5442 67.1119L59.6242 67.0154L59.7021 66.9197L59.7778 66.8234L59.8508 66.7286L59.9223 66.6339L59.9918 66.54L60.0591 66.4469L60.1236 66.3539L60.186 66.2617L60.2449 66.1704L60.3031 66.0798L60.3571 65.9895L60.4096 65.9005L60.4594 65.8118L60.5063 65.7245L60.5504 65.6374L60.5918 65.5518L60.6296 65.4671L60.666 65.3839L60.6989 65.3001L60.7297 65.2186L60.7583 65.135L60.7699 65.0976L60.7822 65.058L60.7937 65.0192L60.8046 64.9797L60.8147 64.9409L60.8241 64.9014L60.8329 64.8627L60.8409 64.8248L60.8483 64.7875L60.8549 64.7496L60.8615 64.7117L60.8668 64.6739L60.872 64.6374L60.8758 64.6011L60.879 64.564L60.8821 64.527L60.8845 64.4907L60.8862 64.4551L60.8872 64.4189L60.8875 64.382L60.8878 64.3465L60.8867 64.311L60.8849 64.2749L60.8831 64.2388L60.8798 64.2028L60.8759 64.1675L60.8726 64.1314L60.8673 64.0962L60.8619 64.0595L60.8558 64.0236L60.8491 63.9884L60.8415 63.9511L60.8326 63.9153L60.8244 63.8788L60.7996 63.7883L60.7725 63.693L60.7425 63.5949L60.7089 63.4935L60.6723 63.388L60.6335 63.2804L60.5917 63.1687L60.5463 63.055L60.4987 62.9379L60.4482 62.8181L60.3948 62.6955L60.3384 62.5703L60.2806 62.4437L60.2184 62.3144L60.1547 62.1824L60.0882 62.0491L60.0194 61.9137L59.9478 61.7756L59.8739 61.637L59.7979 61.4963L59.7197 61.3535L59.6387 61.2095L59.5554 61.0634L59.47 60.9167L59.3824 60.768L59.2933 60.618L59.2014 60.468L59.1081 60.3153L59.0118 60.1627L58.9148 60.008L58.815 59.8535L58.7137 59.6976L58.6102 59.541L58.506 59.3838L58.3997 59.226L58.2913 59.0676L58.1806 58.9085L58.0693 58.7488L57.9565 58.5891L57.8416 58.4288L57.7253 58.2686L57.6075 58.1085L57.4891 57.9476L57.3685 57.7876L57.2472 57.6269L57.1244 57.4663L57.0003 57.3057L56.8747 57.1452L56.7485 56.9854L56.6201 56.8264L56.4918 56.6674L56.3628 56.5092L56.2323 56.351L56.1004 56.1929L55.9686 56.0362L55.8347 55.8803L55.7015 55.7251L55.5662 55.5707L55.4309 55.4163L55.2949 55.264L55.1583 55.1125L55.021 54.9617L54.883 54.8131L54.7444 54.6653L54.6058 54.5188L54.4665 54.3731L54.328 54.2295L54.1873 54.0866L54.0475 53.9459L53.907 53.8073L53.7673 53.6694L53.6262 53.5344L53.4858 53.4001L53.3448 53.268L53.2046 53.1379L53.0637 53.01L52.9229 52.8835L52.7836 52.7598L52.6429 52.6376L52.503 52.5188L52.3632 52.4015L52.2249 52.287L52.0859 52.1746L51.9485 52.065L51.8104 51.9576L51.6731 51.8536L51.5366 51.7518L51.4016 51.6527L51.2666 51.5565L51.1332 51.463L50.9999 51.3724L50.8681 51.286L50.7371 51.2016L50.6069 51.1208L50.4783 51.0427L50.3518 50.9681L50.2255 50.8964L50.1006 50.8288L49.9781 50.7646L49.857 50.7033L49.7375 50.6461L49.6195 50.5917L49.5037 50.5422L49.3873 50.4934L49.3342 50.473L49.2782 50.4514L49.2236 50.4311L49.1691 50.4122L49.1147 50.3933L49.0616 50.3758L49.0086 50.3597L48.9571 50.3435L48.9055 50.3287L48.8555 50.3153L48.8047 50.3027L48.7554 50.29L48.7068 50.2793L48.659 50.2694L48.6111 50.2594L48.5648 50.2508L48.5191 50.2429L48.4742 50.2371L48.4301 50.2305L48.3859 50.2254L48.3439 50.2208L48.302 50.2177L48.2608 50.2153L48.2203 50.2135L48.1805 50.2125L48.1415 50.2121L48.1032 50.2123Z" fill="#DE1B41"/>
<path fill-rule="evenodd" clip-rule="evenodd" d="M107.097 46.1777L107.26 46.1817L107.34 46.1857L107.421 46.1897L107.501 46.1957L107.661 46.2097L107.741 46.2187L107.82 46.2277L107.899 46.2387L107.978 46.2507L108.056 46.2627L108.212 46.2907L108.289 46.3057L108.443 46.3397L108.52 46.3577L108.596 46.3767L108.671 46.3967L108.747 46.4177L108.821 46.4397L108.896 46.4617L108.97 46.4857L109.044 46.5107L109.117 46.5357L109.19 46.5617L109.263 46.5887L109.335 46.6167L109.407 46.6457L109.549 46.7057L109.619 46.7367L109.689 46.7687L109.758 46.8017L109.827 46.8357L109.896 46.8707L109.964 46.9057L110.031 46.9417L110.098 46.9787L110.23 47.0547L110.296 47.0947L110.361 47.1347L110.425 47.1747L110.489 47.2167L110.552 47.2587L110.615 47.3017L110.739 47.3897L110.8 47.4347L110.861 47.4807L110.921 47.5277L110.98 47.5747L111.039 47.6227L111.155 47.7207L111.212 47.7707L111.324 47.8727L111.379 47.9247L111.434 47.9777L111.488 48.0307L111.541 48.0847L111.594 48.1397L111.646 48.1947L111.748 48.3067L111.798 48.3637L111.896 48.4797L111.944 48.5387L111.991 48.5977L112.038 48.6577L112.083 48.7187L112.129 48.7797L112.173 48.8407L112.217 48.9037L112.26 48.9667L112.302 49.0297L112.344 49.0937L112.384 49.1577L112.424 49.2227L112.464 49.2887L112.54 49.4207L112.577 49.4877L112.613 49.5557L112.648 49.6227L112.683 49.6917L112.717 49.7607L112.75 49.8297L112.782 49.8997L112.813 49.9697L112.873 50.1117L112.902 50.1837L112.93 50.2557L112.957 50.3287L112.983 50.4017L113.008 50.4747L113.033 50.5487L113.057 50.6227L113.079 50.6967L113.101 50.7717L113.122 50.8477L113.142 50.9227L113.161 50.9987L113.179 51.0757L113.213 51.2297L113.228 51.3067L113.256 51.4627L113.268 51.5407L113.28 51.6197L113.3 51.7777L113.309 51.8577L113.323 52.0177L113.328 52.0977L113.333 52.1787L113.337 52.2587L113.339 52.3397L113.341 52.4217V63.2347L113.339 63.3167L113.337 63.3977L113.333 63.4777L113.328 63.5587L113.323 63.6387L113.316 63.7187L113.309 63.7987L113.3 63.8787L113.29 63.9577L113.28 64.0367L113.268 64.1157L113.256 64.1937L113.242 64.2717L113.228 64.3497L113.213 64.4267L113.196 64.5037L113.179 64.5807L113.161 64.6567L113.142 64.7327L113.122 64.8087L113.101 64.8837L113.079 64.9587L113.057 65.0337L113.033 65.1077L113.008 65.1817L112.983 65.2547L112.957 65.3277L112.93 65.4007L112.902 65.4727L112.873 65.5437L112.843 65.6157L112.813 65.6857L112.782 65.7567L112.75 65.8267L112.717 65.8957L112.683 65.9647L112.648 66.0327L112.613 66.1007L112.577 66.1687L112.54 66.2357L112.502 66.3017L112.464 66.3677L112.424 66.4337L112.384 66.4987L112.344 66.5627L112.302 66.6267L112.26 66.6897L112.217 66.7527L112.173 66.8147L112.129 66.8767L112.083 66.9377L112.038 66.9987L111.991 67.0587L111.944 67.1177L111.896 67.1767L111.847 67.2347L111.798 67.2927L111.748 67.3497L111.697 67.4057L111.646 67.4617L111.594 67.5167L111.541 67.5717L111.488 67.6257L111.434 67.6787L111.379 67.7317L111.324 67.7837L111.268 67.8347L111.212 67.8857L111.155 67.9357L111.097 67.9847L111.039 68.0337L110.98 68.0817L110.921 68.1287L110.861 68.1757L110.8 68.2207L110.739 68.2667L110.677 68.3107L110.615 68.3547L110.552 68.3977L110.489 68.4397L110.425 68.4817L110.361 68.5217L110.296 68.5617L110.23 68.6017L110.164 68.6397L110.098 68.6777L110.031 68.7147L109.964 68.7507L109.896 68.7857L109.827 68.8207L109.758 68.8537L109.689 68.8867L109.619 68.9197L109.549 68.9507L109.478 68.9807L109.407 69.0107L109.335 69.0397L109.263 69.0677L109.19 69.0947L109.117 69.1207L109.044 69.1457L108.97 69.1707L108.896 69.1937L108.821 69.2167L108.747 69.2387L108.671 69.2597L108.596 69.2797L108.519 69.2987L108.443 69.3167L108.366 69.3337L108.289 69.3507L108.212 69.3657L108.134 69.3797L108.056 69.3937L107.978 69.4057L107.899 69.4177L107.82 69.4277L107.741 69.4377L107.661 69.4467L107.581 69.4537L107.501 69.4607L107.421 69.4657L107.34 69.4707L107.26 69.4747L107.179 69.4767L107.097 69.4787H107.019L87.9792 69.4947L87.8592 69.4877L87.7402 69.4657L87.6252 69.4297L87.5142 69.3807L87.4112 69.3177L87.3162 69.2437L87.2302 69.1587L87.1562 69.0637L87.0932 68.9597L87.0442 68.8497L87.0082 68.7347L86.9862 68.6157L86.9782 68.4957L86.9862 68.3747L87.0072 68.2557L87.0432 68.1407L87.0932 68.0307L87.1552 67.9267L87.2292 67.8317L87.3152 67.7467L87.4102 67.6717L87.5132 67.6097L87.6232 67.5597L87.7382 67.5237L87.8572 67.5017L87.9782 67.4947L107.012 67.4787H107.072L107.128 67.4777L107.184 67.4757L107.239 67.4737L107.294 67.4697L107.349 67.4667L107.404 67.4617L107.459 67.4567L107.513 67.4507L107.568 67.4437L107.621 67.4367L107.675 67.4287L107.729 67.4207L107.782 67.4117L107.835 67.4017L107.888 67.3907L107.94 67.3797L107.993 67.3677L108.045 67.3557L108.097 67.3427L108.148 67.3287L108.2 67.3147L108.251 67.2997L108.302 67.2847L108.352 67.2687L108.402 67.2517L108.452 67.2347L108.502 67.2167L108.552 67.1977L108.601 67.1787L108.65 67.1597L108.698 67.1387L108.746 67.1187L108.794 67.0967L108.842 67.0747L108.89 67.0527L108.937 67.0297L108.983 67.0057L109.03 66.9817L109.076 66.9567L109.122 66.9317L109.167 66.9057L109.212 66.8797L109.257 66.8527L109.301 66.8257L109.345 66.7977L109.389 66.7697L109.433 66.7407L109.476 66.7107L109.518 66.6807L109.56 66.6507L109.602 66.6197L109.644 66.5877L109.685 66.5567L109.726 66.5237L109.766 66.4907L109.806 66.4577L109.845 66.4237L109.884 66.3897L109.923 66.3547L109.961 66.3197L109.999 66.2837L110.037 66.2477L110.074 66.2117L110.11 66.1747L110.146 66.1367L110.182 66.0987L110.217 66.0607L110.252 66.0217L110.286 65.9827L110.32 65.9437L110.353 65.9037L110.386 65.8637L110.419 65.8227L110.451 65.7817L110.482 65.7397L110.513 65.6977L110.543 65.6557L110.573 65.6127L110.603 65.5697L110.632 65.5267L110.66 65.4827L110.688 65.4387L110.715 65.3947L110.742 65.3497L110.769 65.3047L110.794 65.2597L110.82 65.2137L110.844 65.1677L110.868 65.1207L110.892 65.0737L110.915 65.0267L110.938 64.9797L110.959 64.9317L110.981 64.8837L111.002 64.8357L111.022 64.7867L111.041 64.7387L111.06 64.6887L111.079 64.6397L111.097 64.5897L111.114 64.5397L111.131 64.4897L111.147 64.4387L111.162 64.3887L111.177 64.3377L111.191 64.2857L111.205 64.2347L111.218 64.1827L111.23 64.1307L111.242 64.0777L111.253 64.0257L111.264 63.9727L111.274 63.9197L111.283 63.8667L111.291 63.8127L111.299 63.7587L111.306 63.7047L111.313 63.6507L111.319 63.5967L111.324 63.5417L111.329 63.4867L111.332 63.4317L111.336 63.3767L111.338 63.3217L111.34 63.2657L111.341 63.2097V63.1507V52.5057V52.4467L111.34 52.3907L111.338 52.3347L111.336 52.2797L111.332 52.2247L111.329 52.1697L111.324 52.1147L111.319 52.0597L111.313 52.0057L111.306 51.9507L111.299 51.8967L111.291 51.8437L111.283 51.7897L111.274 51.7367L111.264 51.6837L111.253 51.6307L111.242 51.5787L111.23 51.5257L111.218 51.4737L111.205 51.4217L111.191 51.3707L111.177 51.3187L111.162 51.2677L111.147 51.2167L111.131 51.1667L111.114 51.1167L111.097 51.0667L111.079 51.0167L111.06 50.9667L111.041 50.9177L111.022 50.8687L111.002 50.8207L110.981 50.7727L110.959 50.7247L110.938 50.6767L110.915 50.6287L110.892 50.5817L110.868 50.5357L110.844 50.4887L110.82 50.4427L110.794 50.3967L110.768 50.3517L110.742 50.3067L110.715 50.2617L110.688 50.2177L110.66 50.1737L110.632 50.1297L110.603 50.0857L110.573 50.0427L110.543 50.0007L110.513 49.9587L110.482 49.9167L110.451 49.8747L110.419 49.8337L110.386 49.7927L110.353 49.7527L110.32 49.7127L110.286 49.6737L110.252 49.6347L110.217 49.5957L110.182 49.5577L110.146 49.5197L110.11 49.4817L110.074 49.4447L110.037 49.4087L109.999 49.3727L109.961 49.3367L109.923 49.3017L109.884 49.2667L109.845 49.2327L109.806 49.1987L109.766 49.1657L109.726 49.1327L109.685 49.0997L109.644 49.0677L109.602 49.0367L109.56 49.0057L109.518 48.9757L109.476 48.9457L109.433 48.9157L109.389 48.8867L109.345 48.8587L109.301 48.8307L109.257 48.8037L109.212 48.7767L109.167 48.7497L109.122 48.7247L109.076 48.6987L109.03 48.6747L108.983 48.6507L108.937 48.6267L108.889 48.6037L108.842 48.5807L108.794 48.5597L108.746 48.5377L108.698 48.5167L108.65 48.4967L108.601 48.4777L108.552 48.4577L108.502 48.4397L108.452 48.4217L108.402 48.4047L108.352 48.3877L108.302 48.3717L108.251 48.3567L108.2 48.3417L108.148 48.3277L108.097 48.3137L108.045 48.3007L107.993 48.2877L107.94 48.2767L107.888 48.2657L107.835 48.2547L107.782 48.2447L107.729 48.2357L107.675 48.2277L107.621 48.2197L107.568 48.2127L107.513 48.2057L107.459 48.1997L107.404 48.1947L107.349 48.1897L107.294 48.1867L107.239 48.1827L107.184 48.1807L107.128 48.1787L107.072 48.1777H107.013H80.3282H80.2692L80.2132 48.1787L80.1572 48.1807L80.1022 48.1827L80.0472 48.1867L79.9922 48.1897L79.9372 48.1947L79.8822 48.1997L79.8282 48.2057L79.7742 48.2127L79.7202 48.2197L79.6662 48.2277L79.6122 48.2357L79.5592 48.2447L79.5062 48.2547L79.4532 48.2657L79.4012 48.2767L79.3482 48.2877L79.2962 48.3007L79.2442 48.3137L79.1932 48.3277L79.1412 48.3417L79.0902 48.3567L79.0402 48.3717L78.9892 48.3877L78.9392 48.4047L78.8892 48.4217L78.8392 48.4397L78.7902 48.4577L78.7402 48.4777L78.6912 48.4967L78.6432 48.5167L78.5952 48.5377L78.5472 48.5597L78.4992 48.5807L78.4522 48.6037L78.4042 48.6267L78.3582 48.6507L78.3112 48.6747L78.2652 48.6987L78.2192 48.7247L78.1742 48.7497L78.1292 48.7767L78.0842 48.8037L78.0402 48.8307L77.9962 48.8587L77.9522 48.8867L77.9082 48.9157L77.8652 48.9457L77.8232 48.9757L77.7812 49.0057L77.7392 49.0367L77.6972 49.0677L77.6562 49.0997L77.6152 49.1327L77.5752 49.1657L77.5352 49.1987L77.4962 49.2327L77.4572 49.2667L77.4182 49.3017L77.3802 49.3367L77.3422 49.3727L77.3042 49.4087L77.2672 49.4447L77.2312 49.4817L77.1952 49.5197L77.1592 49.5577L77.1242 49.5957L77.0892 49.6347L77.0552 49.6737L77.0212 49.7127L76.9882 49.7527L76.9552 49.7927L76.9222 49.8337L76.8902 49.8747L76.8592 49.9167L76.8282 49.9587L76.7982 50.0007L76.7682 50.0427L76.7382 50.0857L76.7092 50.1297L76.6812 50.1727L76.6532 50.2177L76.6262 50.2617L76.5992 50.3067L76.5732 50.3517L76.5472 50.3967L76.5222 50.4427L76.4972 50.4887L76.4732 50.5357L76.4492 50.5817L76.4262 50.6287L76.4042 50.6767L76.3822 50.7247L76.3602 50.7727L76.3392 50.8207L76.3192 50.8687L76.3002 50.9177L76.2812 50.9667L76.2622 51.0167L76.2442 51.0667L76.2272 51.1167L76.2102 51.1667L76.1942 51.2167L76.1792 51.2677L76.1642 51.3187L76.1502 51.3707L76.1362 51.4217L76.1232 51.4737L76.1112 51.5257L76.0992 51.5787L76.0882 51.6307L76.0772 51.6837L76.0672 51.7367L76.0582 51.7897L76.0502 51.8437L76.0422 51.8967L76.0352 51.9507L76.0282 52.0057L76.0222 52.0597L76.0172 52.1147L76.0122 52.1697L76.0092 52.2247L76.0052 52.2797L76.0032 52.3347L76.0012 52.3907L76.0002 52.4467V63.2107L76.0012 63.2677L76.0052 63.3807L76.0082 63.4367L76.0122 63.4937L76.0162 63.5487L76.0212 63.6047L76.0262 63.6597L76.0322 63.7157L76.0392 63.7697L76.0462 63.8247L76.0542 63.8797L76.0722 63.9877L76.0822 64.0407L76.0922 64.0947L76.1032 64.1477L76.1152 64.1997L76.1272 64.2527L76.1532 64.3567L76.1672 64.4087L76.1822 64.4597L76.1972 64.5117L76.2122 64.5617L76.2292 64.6127L76.2452 64.6627L76.2632 64.7127L76.2802 64.7627L76.3372 64.9097L76.3572 64.9577L76.3992 65.0537L76.4202 65.1007L76.4422 65.1477L76.4652 65.1937L76.4882 65.2407L76.5122 65.2867L76.5602 65.3767L76.5862 65.4217L76.6112 65.4667L76.6372 65.5107L76.6642 65.5537L76.6912 65.5977L76.7182 65.6397L76.7462 65.6827L76.8042 65.7667L76.8332 65.8077L76.8932 65.8897L76.9242 65.9297L76.9552 65.9687L77.0192 66.0467L77.0522 66.0857L77.0852 66.1237L77.1182 66.1607L77.1862 66.2347L77.2562 66.3067L77.2912 66.3417L77.3272 66.3767L77.3632 66.4107L77.4002 66.4447L77.4372 66.4777L77.4752 66.5107L77.5122 66.5437L77.5512 66.5757L77.5892 66.6067L77.6282 66.6377L77.6682 66.6687L77.7072 66.6987L77.7482 66.7277L77.7882 66.7567L77.8292 66.7857L77.8702 66.8137L77.9542 66.8677L77.9962 66.8937L78.0822 66.9457L78.1252 66.9707L78.2132 67.0187L78.2572 67.0417L78.3022 67.0647L78.3472 67.0867L78.3922 67.1077L78.4842 67.1497L78.5302 67.1697L78.6242 67.2077L78.6712 67.2257L78.7192 67.2437L78.7672 67.2607L78.8152 67.2767L78.9132 67.3087L78.9622 67.3227L79.0622 67.3507L79.1122 67.3637L79.1622 67.3757L79.2132 67.3877L79.2642 67.3987L79.3162 67.4087L79.3672 67.4187L79.4192 67.4277L79.4722 67.4357L79.5242 67.4437L79.5772 67.4507L79.6312 67.4577L79.6842 67.4637L79.7382 67.4687L79.7922 67.4727L79.8472 67.4767L79.9572 67.4827L80.0122 67.4847L80.0682 67.4857H80.1302L80.2512 67.4937L80.3692 67.5167L80.4842 67.5527L80.5942 67.6037L80.6972 67.6667L80.7922 67.7417L80.8772 67.8277L80.9502 67.9227L81.0122 68.0267L81.0612 68.1367L81.0962 68.2527L81.1172 68.3717L81.1242 68.4917L81.1162 68.6127L81.0932 68.7317L81.0572 68.8467L81.0062 68.9557L80.9432 69.0587L80.8682 69.1537L80.7822 69.2387L80.6872 69.3127L80.5832 69.3737L80.4732 69.4227L80.3572 69.4577L80.2382 69.4797L80.1182 69.4857H80.0422L79.9612 69.4837L79.8802 69.4807L79.8002 69.4777L79.7192 69.4727L79.6392 69.4677L79.5592 69.4607L79.4802 69.4527L79.4002 69.4447L79.3222 69.4347L79.2432 69.4237L79.1652 69.4127L79.0872 69.3997L79.0092 69.3857L78.9322 69.3717L78.8562 69.3557L78.7792 69.3397L78.7032 69.3227L78.6272 69.3037L78.5522 69.2847L78.4772 69.2647L78.4032 69.2427L78.3292 69.2207L78.2552 69.1977L78.1822 69.1747L78.1092 69.1497L78.0372 69.1237L77.9652 69.0967L77.8942 69.0697L77.8232 69.0417L77.7532 69.0127L77.6832 68.9817L77.6132 68.9517L77.5442 68.9197L77.4762 68.8867L77.4082 68.8537L77.3402 68.8197L77.2732 68.7847L77.2072 68.7487L77.1412 68.7117L77.0762 68.6747L77.0112 68.6357L76.9472 68.5967L76.8832 68.5567L76.8202 68.5167L76.7572 68.4747L76.6952 68.4327L76.6342 68.3907L76.5732 68.3467L76.5132 68.3027L76.4532 68.2577L76.3942 68.2117L76.3352 68.1647L76.2782 68.1177L76.2202 68.0697L76.1642 68.0217L76.1082 67.9727L76.0522 67.9227L75.9972 67.8717L75.9432 67.8207L75.8902 67.7687L75.8372 67.7157L75.7852 67.6627L75.7332 67.6087L75.6822 67.5547L75.6322 67.4997L75.5832 67.4437L75.5342 67.3877L75.4852 67.3307L75.4382 67.2737L75.3912 67.2147L75.3452 67.1567L75.3002 67.0977L75.2552 67.0377L75.2112 66.9777L75.1672 66.9167L75.1252 66.8547L75.0832 66.7927L75.0422 66.7307L75.0012 66.6677L74.9622 66.6037L74.9232 66.5397L74.8842 66.4747L74.8472 66.4097L74.8102 66.3447L74.7742 66.2787L74.7392 66.2117L74.7042 66.1447L74.6712 66.0777L74.6382 66.0097L74.6062 65.9407L74.5742 65.8727L74.5442 65.8027L74.5142 65.7337L74.4852 65.6627L74.4562 65.5927L74.4292 65.5217L74.4022 65.4507L74.3772 65.3787L74.3522 65.3067L74.3272 65.2337L74.3042 65.1607L74.2822 65.0877L74.2602 65.0137L74.2392 64.9397L74.2192 64.8657L74.2002 64.7907L74.1812 64.7157L74.1642 64.6407L74.1472 64.5647L74.1322 64.4887L74.1172 64.4117L74.1032 64.3357L74.0902 64.2587L74.0772 64.1807L74.0662 64.1037L74.0552 64.0257L74.0462 63.9477L74.0372 63.8697L74.0292 63.7907L74.0222 63.7117L74.0162 63.6327L74.0112 63.5537L74.0072 63.4737L74.0042 63.3937L74.0022 63.3137L74.0002 63.2337V63.1567V52.4997V52.4217L74.0022 52.3397L74.0042 52.2587L74.0082 52.1787L74.0132 52.0977L74.0182 52.0177L74.0252 51.9377L74.0322 51.8577L74.0412 51.7777L74.0512 51.6987L74.0612 51.6197L74.0732 51.5407L74.0852 51.4627L74.0992 51.3847L74.1132 51.3067L74.1282 51.2297L74.1452 51.1527L74.1622 51.0757L74.1802 50.9987L74.1992 50.9227L74.2192 50.8477L74.2402 50.7717L74.2622 50.6967L74.2852 50.6227L74.3082 50.5487L74.3332 50.4747L74.3582 50.4017L74.3842 50.3287L74.4112 50.2557L74.4392 50.1837L74.4682 50.1117L74.4982 50.0407L74.5282 49.9697L74.5592 49.8997L74.5922 49.8297L74.6242 49.7607L74.6582 49.6917L74.6932 49.6227L74.7282 49.5547L74.7642 49.4877L74.8012 49.4207L74.8392 49.3547L74.8772 49.2887L74.9172 49.2227L74.9572 49.1577L74.9972 49.0937L75.0392 49.0297L75.0812 48.9667L75.1242 48.9037L75.1682 48.8407L75.2122 48.7797L75.2582 48.7187L75.3032 48.6577L75.3502 48.5977L75.3972 48.5387L75.4452 48.4797L75.4942 48.4217L75.5432 48.3637L75.5932 48.3067L75.6442 48.2507L75.6952 48.1947L75.7472 48.1397L75.8002 48.0847L75.8532 48.0307L75.9072 47.9777L75.9622 47.9247L76.0172 47.8727L76.0732 47.8217L76.1292 47.7707L76.1862 47.7207L76.2442 47.6717L76.3022 47.6227L76.3612 47.5747L76.4202 47.5277L76.4802 47.4807L76.5412 47.4347L76.6022 47.3897L76.6642 47.3457L76.7262 47.3017L76.7892 47.2587L76.8522 47.2167L76.9162 47.1747L76.9802 47.1347L77.0452 47.0947L77.1112 47.0547L77.1772 47.0167L77.2432 46.9787L77.3102 46.9417L77.3782 46.9057L77.4462 46.8707L77.5142 46.8357L77.5832 46.8017L77.6522 46.7687L77.7222 46.7367L77.7932 46.7057L77.8632 46.6757L77.9352 46.6457L78.0062 46.6167L78.0782 46.5887L78.1512 46.5617L78.2242 46.5357L78.2972 46.5107L78.3712 46.4857L78.4452 46.4617L78.5202 46.4397L78.5952 46.4177L78.6702 46.3967L78.7452 46.3767L78.8222 46.3577L78.8982 46.3397L78.9752 46.3227L79.0522 46.3057L79.1292 46.2907L79.2072 46.2767L79.2852 46.2627L79.3632 46.2507L79.4422 46.2387L79.5212 46.2277L79.6002 46.2187L79.6802 46.2097L79.7602 46.2027L79.8402 46.1957L79.9202 46.1897L80.0012 46.1857L80.0812 46.1817L80.1622 46.1797L80.2442 46.1777H107.097Z" fill="#DE1B41"/>
<path fill-rule="evenodd" clip-rule="evenodd" d="M80.3207 67.4951L80.3757 67.4991L80.4297 67.5061L80.4837 67.5161L80.5377 67.5291L80.5907 67.5451L80.6427 67.5641L80.6927 67.5861L80.7427 67.6101L80.7907 67.6371L80.8367 67.6671L80.8817 67.6991L80.9247 67.7331L80.9657 67.7701L81.0047 67.8091L81.0407 67.8511L81.0757 67.8941L81.1067 67.9391L81.1367 67.9851L81.1637 68.0341L81.1877 68.0831L81.2087 68.1341L81.2267 68.1861L81.2427 68.2391L81.2547 68.2921L81.2647 68.3471L81.2717 68.4011L81.2747 68.4561L81.2757 68.5111L81.2127 72.2341L87.3117 67.6921L87.3577 67.6611L87.4037 67.6321L87.4527 67.6051L87.5017 67.5811L87.5527 67.5601L87.6047 67.5421L87.6577 67.5271L87.7117 67.5141L87.7657 67.5051L87.8207 67.4981L87.8757 67.4951H87.9307L87.9857 67.4971L88.0407 67.5031L88.0947 67.5121L88.1487 67.5241L88.2017 67.5381L88.2547 67.5561L88.3057 67.5761L88.3557 67.5991L88.4037 67.6251L88.4507 67.6541L88.4967 67.6851L88.5407 67.7191L88.5817 67.7551L88.6217 67.7931L88.6597 67.8331L88.6947 67.8751L88.7277 67.9201L88.7577 67.9651L88.7857 68.0131L88.8107 68.0621L88.8337 68.1121L88.8527 68.1641L88.8697 68.2161L88.8837 68.2701L88.8947 68.3241L88.9027 68.3781L88.9077 68.4331L88.9097 68.4881L88.9087 68.5431L88.9037 68.5981L88.8967 68.6531L88.8867 68.7071L88.8737 68.7611L88.8577 68.8131L88.8387 68.8651L88.8167 68.9161L88.7917 68.9651L88.7647 69.0131L88.7347 69.0591L88.7027 69.1041L88.6677 69.1461L88.6307 69.1871L88.5917 69.2261L88.5497 69.2621L88.5067 69.2971L80.7747 75.0541L80.7307 75.0851L80.6847 75.1141L80.6367 75.1401L80.5877 75.1641L80.5377 75.1841L80.4867 75.2031L80.4347 75.2181L80.3817 75.2311L80.3287 75.2401L80.2747 75.2471L80.2197 75.2511H80.1657L80.1117 75.2491L80.0577 75.2441L80.0037 75.2361L79.9507 75.2251L79.8977 75.2121L79.8457 75.1951L79.7957 75.1761L79.7457 75.1531L79.6977 75.1291L79.6507 75.1011L79.6047 75.0711L79.5617 75.0391L79.5197 75.0041L79.4797 74.9681L79.4417 74.9291L79.4057 74.8881L79.3727 74.8451L79.3417 74.8001L79.3127 74.7541L79.2867 74.7061L79.2637 74.6571L79.2427 74.6071L79.2247 74.5561L79.2097 74.5031L79.1977 74.4511L79.1887 74.3971L79.1817 74.3431L79.1787 74.2891L79.1777 74.2341L79.2757 68.4771L79.2787 68.4221L79.2837 68.3681L79.2927 68.3131L79.3037 68.2591L79.3187 68.2061L79.3357 68.1541L79.3557 68.1021L79.3787 68.0521L79.4047 68.0041L79.4327 67.9561L79.4637 67.9111L79.4977 67.8671L79.5327 67.8251L79.5707 67.7851L79.6107 67.7471L79.6537 67.7121L79.6977 67.6791L79.7427 67.6481L79.7907 67.6201L79.8397 67.5951L79.8897 67.5721L79.9407 67.5521L79.9937 67.5351L80.0467 67.5211L80.1007 67.5101L80.1557 67.5021L80.2097 67.4971L80.2657 67.4941L80.3207 67.4951Z" fill="#DE1B41"/>
<path d="M93.2155 60.8081L92.7725 54.5491V51.9321H94.5695V54.5491L94.1505 60.8081H93.2155ZM92.8375 63.7401V62.0891H94.5045V63.7401H92.8375Z" fill="#DE1B41"/>
</g>
<defs>
<clipPath id="clip0_1_113">
<rect width="100" height="100" fill="white" transform="translate(25 30)"/>
</clipPath>
</defs>
</svg>
