<svg width="123" height="122" viewBox="0 0 123 122" fill="none" xmlns="http://www.w3.org/2000/svg">
<ellipse cx="61.4993" cy="61.1132" rx="61.4837" ry="60.8154" fill="#DE1B41"/>
<path d="M81.1309 42.0389C78.578 39.4602 75.5372 37.4156 72.1858 36.0244C68.8345 34.6331 65.2396 33.9231 61.611 33.9358C46.4071 33.9358 34.0157 46.3272 34.0157 61.531C34.0157 66.404 35.2966 71.1378 37.6914 75.3147L33.793 89.6275L48.412 85.7848C52.4497 87.9846 56.9886 89.1541 61.611 89.1541C76.8148 89.1541 89.2062 76.7627 89.2062 61.5589C89.2062 54.1797 86.3381 47.2461 81.1309 42.0389ZM61.611 84.476C57.4898 84.476 53.4521 83.3622 49.9157 81.2737L49.0803 80.7725L40.3924 83.0559L42.7036 74.5907L42.1467 73.7275C39.8571 70.0713 38.6413 65.845 38.6381 61.531C38.6381 48.889 48.9411 38.586 61.5831 38.586C67.7092 38.586 73.4733 40.9808 77.7894 45.3247C79.9266 47.4521 81.6202 49.9824 82.7722 52.7691C83.9241 55.5558 84.5115 58.5435 84.5003 61.5589C84.556 74.2009 74.253 84.476 61.611 84.476ZM74.1973 67.323C73.5012 66.9888 70.104 65.3181 69.4914 65.0674C68.8509 64.8447 68.4054 64.7333 67.932 65.4016C67.4586 66.0977 66.1499 67.6571 65.76 68.1026C65.3702 68.576 64.9525 68.6317 64.2563 68.2697C63.5602 67.9356 61.3325 67.1837 58.715 64.8447C56.6544 63.0069 55.29 60.7513 54.8723 60.0552C54.4824 59.359 54.8166 58.997 55.1786 58.6351C55.4849 58.3287 55.8747 57.8275 56.2089 57.4377C56.543 57.0478 56.6823 56.7415 56.905 56.296C57.1278 55.8226 57.0164 55.4328 56.8493 55.0986C56.6823 54.7645 55.29 51.3673 54.7331 49.975C54.1761 48.6384 53.5914 48.8055 53.1737 48.7776H51.8371C51.3637 48.7776 50.6397 48.9447 49.9993 49.6408C49.3867 50.337 47.6045 52.0077 47.6045 55.4049C47.6045 58.8021 50.0828 62.0879 50.4169 62.5335C50.7511 63.0069 55.29 69.9683 62.1957 72.9478C63.8387 73.6718 65.1196 74.0895 66.122 74.3958C67.7649 74.9249 69.2686 74.8413 70.466 74.6743C71.8026 74.4793 74.5593 73.0035 75.1162 71.3885C75.701 69.7734 75.701 68.409 75.5061 68.1026C75.3111 67.7963 74.8935 67.6571 74.1973 67.323Z" fill="white"/>
</svg>
